<svg width="817" height="531" viewBox="0 0 817 531" fill="none" xmlns="http://www.w3.org/2000/svg">
<g clip-path="url(#clip0)">
<path d="M776.638 204.927V157.67H744.206V204.927H705.801V131.826H677.638V77.1848H654.594V21.0667H606.801V77.1848H583.758V131.826H556.448V66.1088H541.086V32.881H531.698V66.1088H477.077V275.813H435.258V253.661H409.655V275.813H367.836V204.927H292.733V157.67H260.302V204.927H258.595V295.75H224.457V242.586H183.491V295.75H149.353V131.826H122.896V77.1848H25.6034V131.826H0L0 420.539H149.353H258.595H367.836H477.077H556.448H705.801H815.043V204.927H776.638Z" fill="#2C4155"/>
<path opacity="0.4" d="M52.0597 148.809H16.2148V166.531H52.0597V148.809Z" fill="#FDC624"/>
<path opacity="0.4" d="M96.4402 166.531H132.285V148.809H96.4402V166.531Z" fill="#FDC624"/>
<path opacity="0.4" d="M52.0597 183.514H16.2148V201.236H52.0597V183.514Z" fill="#FDC624"/>
<path opacity="0.4" d="M96.4402 201.236H132.285V183.514H96.4402V201.236Z" fill="#FDC624"/>
<path opacity="0.4" d="M52.0597 218.219H16.2148V235.94H52.0597V218.219Z" fill="#FDC624"/>
<path opacity="0.4" d="M96.4402 235.94H132.285V218.219H96.4402V235.94Z" fill="#FDC624"/>
<path opacity="0.4" d="M52.0597 252.923H16.2148V270.645H52.0597V252.923Z" fill="#FDC624"/>
<path opacity="0.4" d="M96.4402 270.645H132.285V252.924H96.4402V270.645Z" fill="#FDC624"/>
<path opacity="0.4" d="M52.0597 287.628H16.2148V305.35H52.0597V287.628Z" fill="#FDC624"/>
<path opacity="0.4" d="M96.4402 305.35H132.285V287.628H96.4402V305.35Z" fill="#FDC624"/>
<path opacity="0.4" d="M52.0597 322.333H16.2148V340.055H52.0597V322.333Z" fill="#FDC624"/>
<path opacity="0.4" d="M96.4402 340.055H132.285V322.333H96.4402V340.055Z" fill="#FDC624"/>
<path opacity="0.4" d="M52.0597 357.038H16.2148V374.759H52.0597V357.038Z" fill="#FDC624"/>
<path opacity="0.4" d="M96.4402 374.759H132.285V357.038H96.4402V374.759Z" fill="#FDC624"/>
<path opacity="0.4" d="M245.792 313.472H162.154V322.333H245.792V313.472Z" fill="#FDC624"/>
<path opacity="0.4" d="M245.792 326.763H162.154V335.624H245.792V326.763Z" fill="#FDC624"/>
<path opacity="0.4" d="M245.792 340.055H162.154V348.916H245.792V340.055Z" fill="#FDC624"/>
<path opacity="0.4" d="M464.276 317.903H380.638V326.763H464.276V317.903Z" fill="#FDC624"/>
<path opacity="0.4" d="M464.276 331.193H380.638V340.054H464.276V331.193Z" fill="#FDC624"/>
<path opacity="0.4" d="M464.276 344.484H380.638V353.345H464.276V344.484Z" fill="#FDC624"/>
<path opacity="0.4" d="M245.792 353.346H162.154V362.206H245.792V353.346Z" fill="#FDC624"/>
<path opacity="0.4" d="M245.792 366.637H162.154V375.498H245.792V366.637Z" fill="#FDC624"/>
<path opacity="0.4" d="M245.792 379.928H162.154V388.788H245.792V379.928Z" fill="#FDC624"/>
<path opacity="0.4" d="M299.563 221.911H276.52V247.755H299.563V221.911Z" fill="#FDC624"/>
<path opacity="0.4" d="M326.873 247.755H349.916V221.911H326.873V247.755Z" fill="#FDC624"/>
<path opacity="0.4" d="M299.563 263.261H276.52V289.105H299.563V263.261Z" fill="#FDC624"/>
<path opacity="0.4" d="M326.873 289.105H349.916V263.261H326.873V289.105Z" fill="#FDC624"/>
<path opacity="0.4" d="M299.563 304.611H276.52V330.455H299.563V304.611Z" fill="#FDC624"/>
<path opacity="0.4" d="M326.873 330.455H349.916V304.611H326.873V330.455Z" fill="#FDC624"/>
<path opacity="0.4" d="M299.563 345.961H276.52V371.805H299.563V345.961Z" fill="#FDC624"/>
<path opacity="0.4" d="M326.873 371.806H349.916V345.962H326.873V371.806Z" fill="#FDC624"/>
<path opacity="0.4" d="M507.804 83.0919H477.08V117.058H507.804V83.0919Z" fill="#FDC624"/>
<path opacity="0.4" d="M507.804 131.827H477.08V165.793H507.804V131.827Z" fill="#FDC624"/>
<path opacity="0.4" d="M507.804 180.56H477.08V214.527H507.804V180.56Z" fill="#FDC624"/>
<path opacity="0.4" d="M507.804 229.295H477.08V263.261H507.804V229.295Z" fill="#FDC624"/>
<path opacity="0.4" d="M507.804 278.029H477.08V311.995H507.804V278.029Z" fill="#FDC624"/>
<path opacity="0.4" d="M507.804 326.763H477.08V360.73H507.804V326.763Z" fill="#FDC624"/>
<path opacity="0.4" d="M688.306 152.501H573.943V181.299H688.306V152.501Z" fill="#FDC624"/>
<path opacity="0.4" d="M688.733 214.526H574.371V229.294H688.733V214.526Z" fill="#FDC624"/>
<path opacity="0.4" d="M689.157 276.552H574.794V305.349H689.157V276.552Z" fill="#FDC624"/>
<path opacity="0.4" d="M689.584 338.577H575.222V367.375H689.584V338.577Z" fill="#FDC624"/>
<path opacity="0.4" d="M40.9639 92.6909H25.6018V120.75H40.9639V92.6909Z" fill="#FDC624"/>
<path opacity="0.4" d="M815.042 221.911H776.637V264.738H815.042V221.911Z" fill="#FDC624"/>
<path opacity="0.4" d="M815.042 283.936H776.637V326.763H815.042V283.936Z" fill="#FDC624"/>
<path opacity="0.4" d="M815.042 345.961H776.637V388.788H815.042V345.961Z" fill="#FDC624"/>
<path d="M174.078 261.009L173.985 261.259C174.025 261.178 174.056 261.094 174.078 261.009Z" fill="url(#paint0_linear)"/>
<g opacity="0.05">
<path opacity="0.05" d="M179.191 256.94C175 251.107 163.427 242.113 163.427 242.113C171.962 219.429 220.907 208.088 225.951 205.932C228.733 204.728 231.362 203.259 236.295 202.476C228.614 202.963 225.379 204.868 221.923 206.367C216.879 208.582 167.976 219.887 159.399 242.549C159.399 242.549 177.817 256.807 176.63 261.06C177.203 259.57 178.07 258.176 179.191 256.94Z" fill="black"/>
<path opacity="0.05" d="M176.586 261.068L176.492 261.311C176.532 261.232 176.563 261.151 176.586 261.068Z" fill="black"/>
<path opacity="0.05" d="M272.112 202.484L271.531 201.745C271.531 201.745 270.891 202.395 268.177 202.882C269.498 202.826 270.812 202.693 272.112 202.484Z" fill="black"/>
<path opacity="0.05" d="M185.62 254.791C186.382 254.729 187.127 254.554 187.822 254.274C187.054 254.311 186.304 254.487 185.62 254.791Z" fill="black"/>
<path opacity="0.05" d="M251.214 307.004C260.235 306.147 269.043 306.132 275.316 307.986C275.316 307.986 275.435 307.528 275.632 306.708C268.753 305.549 259.92 305.955 251.214 307.004Z" fill="black"/>
<path opacity="0.05" d="M217.774 312.948C219.481 309.994 225.6 298.313 220.335 286.609C214.284 273.089 218.824 234.7 218.824 234.7C218.824 234.7 217.117 236.176 214.454 238.392C213.524 247.91 211.322 275.932 216.306 287.074C222.357 300.594 213.285 314.122 213.285 314.122C213.285 314.122 214.966 313.634 217.774 312.948Z" fill="black"/>
</g>
<path opacity="0.1" d="M815.042 449.999C807.118 452.866 798.816 455.342 790.625 457.81C760.364 466.777 729.647 475.821 697.139 478.899C636.128 484.671 573.114 469.042 513.138 478.766C462.889 486.904 421.333 511.843 372.241 522.95C349.415 528.113 325.665 530.136 301.704 530.136H298.554C295.586 530.11 292.641 530.058 289.718 529.98C265.422 529.339 241.027 526.816 217.21 523.591C142.01 513.437 65.4736 494.824 7.97974 460.559C175.398 439.057 520.239 406.112 815.042 449.999Z" fill="#252223"/>
<path opacity="0.1" d="M522.901 479.661C685.79 479.661 817.838 466.996 817.838 451.373C817.838 435.751 685.79 423.086 522.901 423.086C360.012 423.086 227.965 435.751 227.965 451.373C227.965 466.996 360.012 479.661 522.901 479.661Z" fill="#6C63FF"/>
<path d="M403.469 359.268C403.469 359.268 484.329 307.686 540.231 307.686C540.231 307.686 607.533 297.219 680.738 314.909C753.943 332.599 780.983 355.536 801.279 348.802L716.013 351.294L403.469 359.268Z" fill="#415466"/>
<path opacity="0.1" d="M403.469 359.268C403.469 359.268 484.329 307.686 540.231 307.686C540.231 307.686 607.533 297.219 680.738 314.909C753.943 332.599 780.983 355.536 801.279 348.802L716.013 351.294L403.469 359.268Z" fill="#415466"/>
<path d="M784.597 438.215H291.452L305.011 383.975L388.87 361.713L784.597 372.097V438.215Z" fill="#121C3F"/>
<path d="M810.557 404.322V421.633C810.557 421.633 795.916 432.237 794.585 440.542C794.585 440.542 773.62 445.858 767.634 445.858C767.09 445.858 766.496 445.858 765.876 445.92C766.811 443.414 767.542 440.837 768.062 438.214C769.53 430.854 769.345 423.26 767.521 415.979C765.696 408.699 762.276 401.913 757.509 396.111C752.741 390.309 746.744 385.634 739.949 382.425C733.154 379.216 725.732 377.551 718.215 377.551C710.699 377.551 703.276 379.216 696.481 382.425C689.686 385.634 683.689 390.309 678.922 396.111C674.154 401.913 670.735 408.699 668.91 415.979C667.085 423.26 666.9 430.854 668.368 438.214C669.074 441.763 670.158 445.225 671.603 448.543H643.176C643.176 448.543 642.914 448.633 642.486 448.819C640.962 449.507 637.369 451.325 636.852 454.183H401.266L396.438 454.141C397.464 452.422 398.385 450.642 399.197 448.812C400.71 445.421 401.835 441.871 402.548 438.228C403.95 431.272 403.877 424.099 402.333 417.172C400.789 410.246 397.809 403.719 393.584 398.013C389.359 392.307 383.983 387.548 377.804 384.043C371.624 380.539 364.778 378.366 357.705 377.665C350.633 376.964 343.493 377.75 336.744 379.974C329.995 382.197 323.787 385.808 318.521 390.573C313.255 395.338 309.048 401.152 306.17 407.641C303.292 414.129 301.808 421.147 301.813 428.244C301.813 431.589 302.141 434.926 302.792 438.207C303.904 443.763 305.941 449.094 308.82 453.976C305.454 453.157 298.11 450.829 298.11 450.829C298.11 450.829 266.835 447.51 258.849 440.5L260.056 439.667L265.173 436.176L262.842 427.224C262.56 426.847 262.329 426.435 262.152 425.999C261.532 424.505 260.987 421.73 263.18 418.245C266.504 412.929 264.842 393.993 264.842 393.993C264.842 393.993 310.096 362.766 399.272 355.783C399.272 355.783 401.403 357.436 405.803 357.78C408.783 358.021 412.803 357.656 417.913 355.783C417.913 355.783 425.23 359.102 456.533 341.165C456.533 341.165 509.78 304.614 579.66 307.947C579.66 307.947 651.534 303.623 712.76 327.228C739.145 337.391 759.221 342.81 773.531 345.675C786.744 348.326 795.04 348.815 798.84 348.856H798.923C800.164 348.856 800.902 348.856 801.164 348.856H801.275C801.275 348.856 801.275 356.768 801.695 366.112V366.16C801.847 369.411 802.054 372.833 802.344 376.159V376.365C803.144 385.627 804.523 394.041 806.916 395.708L810.557 404.322Z" fill="#FDC81D"/>
<path d="M272.033 393.236C272.033 393.236 292.081 377.619 317.039 380.945C317.039 380.945 294.329 398.889 284.095 397.725L282.35 396.231L272.006 396.81C272.006 396.81 270.461 394.4 272.033 393.236Z" fill="#415466"/>
<path opacity="0.2" d="M291.495 420.256V429.477C291.495 429.477 290.805 438.284 282.84 438.614L260.082 439.737L265.192 436.245L262.861 427.294C262.579 426.92 262.347 426.51 262.172 426.075C264.24 424.174 269.116 420.966 279.033 420.277L291.495 420.256Z" fill="#FDC204"/>
<path opacity="0.2" d="M397.392 381.613L414.861 380.924C414.861 380.924 407.792 386.488 402.799 386.99C397.806 387.493 397.392 381.613 397.392 381.613Z" fill="#FDC204"/>
<path opacity="0.2" d="M434.165 434.524C434.165 434.524 592.14 412.592 630.325 419.568C630.325 419.568 641.552 420.318 645.801 424.801C650.049 429.284 645.801 426.378 645.801 426.378L434.165 434.524Z" fill="#FDC204"/>
<path opacity="0.5" d="M522.597 372.97C522.597 372.97 524.597 369.231 527.838 369.149L548.886 368.068C548.886 368.068 548.555 370.973 544.81 372.054L522.597 372.97Z" fill="#18218A"/>
<path opacity="0.5" d="M644.388 366.656C644.388 366.656 646.388 362.917 649.629 362.834L670.677 361.726C670.677 361.726 670.346 364.631 666.601 365.713L644.388 366.656Z" fill="#18218A"/>
<path d="M572.525 315.426L556.374 357.719L498.141 357.781H483.148H470.107H458.831H446.059C446.059 357.781 453.838 352.079 466.369 344.814C470.507 342.404 475.203 339.829 480.3 337.24C484.989 334.844 490.038 332.42 495.341 330.12C499.479 328.302 503.837 326.553 508.292 324.921C528.492 317.546 551.195 312.595 572.525 315.426Z" fill="#415466"/>
<path d="M664.021 346.308C664.021 346.308 639.691 349.91 616.471 352.574C607.595 353.594 598.885 354.475 591.754 354.964L590.761 355.033C588.003 355.212 585.444 355.329 583.272 355.37C579.824 355.432 577.244 355.281 575.955 354.867L582.665 314.413C582.665 314.413 590.941 314.502 603.182 315.101L605.858 315.246C608.402 315.391 611.085 315.556 613.885 315.749C617.885 316.024 622.098 316.355 626.443 316.754C647.422 318.675 671.187 322.125 686.235 328.336C718.254 341.571 664.021 346.308 664.021 346.308Z" fill="#415466"/>
<path d="M776.158 366.655V377.452C776.158 377.452 758.689 377.7 762.434 374.216C764.858 371.902 767.058 369.366 769.006 366.641L776.158 366.655Z" fill="#546575"/>
<path d="M802.329 376.351L788.143 377.46V364.48C788.143 364.48 794.716 355.26 801.288 365.479L801.667 366.078L802.329 376.351Z" fill="#EF0000"/>
<path d="M352.688 468.781C375.11 468.781 393.287 450.632 393.287 428.244C393.287 405.856 375.11 387.707 352.688 387.707C330.266 387.707 312.089 405.856 312.089 428.244C312.089 450.632 330.266 468.781 352.688 468.781Z" fill="#182A7C"/>
<path d="M385.251 428.209C385.265 436.574 382.062 444.625 376.302 450.699C370.542 456.773 362.665 460.406 354.299 460.847C345.933 461.288 337.717 458.504 331.349 453.07C324.98 447.636 320.944 439.967 320.076 431.647C319.208 423.327 321.574 414.993 326.685 408.364C331.795 401.736 339.26 397.321 347.537 396.032C355.815 394.742 364.272 396.676 371.162 401.434C378.052 406.192 382.849 413.411 384.561 421.599C385.015 423.773 385.246 425.988 385.251 428.209Z" fill="#CCCCCC"/>
<path opacity="0.5" d="M352.638 456.221C368.097 456.221 380.63 443.677 380.63 428.203C380.63 412.728 368.097 400.184 352.638 400.184C337.178 400.184 324.645 412.728 324.645 428.203C324.645 443.677 337.178 456.221 352.638 456.221Z" fill="#18218A"/>
<path d="M362.003 396.927V398.111L352.686 428.912L345.21 396.417C350.757 395.127 356.545 395.302 362.003 396.927Z" fill="#CCCCCC"/>
<path d="M361.934 459.506C356.598 461.084 350.946 461.278 345.514 460.071L352.679 428.912L361.934 459.506Z" fill="#CCCCCC"/>
<path d="M385.254 428.21C385.259 431.608 384.733 434.986 383.695 438.222H383.564L352.717 428.919L384.62 421.606C385.053 423.781 385.266 425.993 385.254 428.21Z" fill="#CCCCCC"/>
<path d="M352.686 428.912L321.839 438.215H321.597C319.879 432.837 319.573 427.109 320.708 421.579L352.686 428.912Z" fill="#CCCCCC"/>
<path d="M352.638 431.777C354.615 431.777 356.217 430.177 356.217 428.203C356.217 426.229 354.615 424.629 352.638 424.629C350.661 424.629 349.059 426.229 349.059 428.203C349.059 430.177 350.661 431.777 352.638 431.777Z" fill="#182A7C"/>
<path d="M717.967 468.781C740.389 468.781 758.566 450.632 758.566 428.243C758.566 405.855 740.389 387.706 717.967 387.706C695.545 387.706 677.368 405.855 677.368 428.243C677.368 450.632 695.545 468.781 717.967 468.781Z" fill="#182A7C"/>
<path d="M750.533 428.209C750.548 436.574 747.345 444.624 741.585 450.698C735.824 456.772 727.948 460.405 719.582 460.846C711.216 461.287 703 458.503 696.631 453.069C690.262 447.635 686.227 439.966 685.359 431.646C684.491 423.327 686.857 414.992 691.967 408.364C697.078 401.736 704.543 397.321 712.82 396.031C721.098 394.741 729.555 396.675 736.445 401.433C743.335 406.191 748.132 413.41 749.844 421.598C750.298 423.773 750.529 425.988 750.533 428.209Z" fill="#D1D1D1"/>
<path opacity="0.5" d="M717.922 456.221C733.382 456.221 745.914 443.676 745.914 428.202C745.914 412.728 733.382 400.183 717.922 400.183C702.462 400.183 689.93 412.728 689.93 428.202C689.93 443.676 702.462 456.221 717.922 456.221Z" fill="#18218A"/>
<path d="M727.28 396.926V398.111L717.963 428.911L710.487 396.417C716.034 395.126 721.822 395.301 727.28 396.926Z" fill="#D1D1D1"/>
<path d="M727.224 459.505C721.887 461.083 716.236 461.278 710.803 460.07L717.969 428.911L727.224 459.505Z" fill="#D1D1D1"/>
<path d="M750.534 428.209C750.539 431.607 750.013 434.985 748.976 438.221H748.817L717.963 428.911L749.865 421.599C750.311 423.774 750.536 425.989 750.534 428.209Z" fill="#D1D1D1"/>
<path d="M717.964 428.911L687.116 438.214H686.875C685.157 432.836 684.85 427.108 685.985 421.578L717.964 428.911Z" fill="#D1D1D1"/>
<path d="M717.922 431.776C719.899 431.776 721.501 430.176 721.501 428.202C721.501 426.228 719.899 424.628 717.922 424.628C715.945 424.628 714.343 426.228 714.343 428.202C714.343 430.176 715.945 431.776 717.922 431.776Z" fill="#182A7C"/>
<path opacity="0.2" d="M480.303 337.281L470.103 357.808H458.827L466.365 344.856C470.523 342.446 475.206 339.877 480.303 337.281Z" fill="#FDC204"/>
<path opacity="0.2" d="M508.289 324.961L498.131 357.786H483.138L495.344 330.146C499.51 328.342 503.841 326.607 508.289 324.961Z" fill="#FDC204"/>
<path opacity="0.2" d="M613.9 315.783L591.77 354.97L590.777 355.039C588.018 355.218 585.46 355.335 583.287 355.377L603.197 315.142L605.873 315.287C608.383 315.425 611.087 315.59 613.9 315.783Z" fill="#FDC204"/>
<path opacity="0.5" d="M642.492 448.792C640.968 449.481 637.375 451.299 636.858 454.156H401.264L396.436 454.115C397.462 452.395 398.383 450.616 399.195 448.785L642.492 448.792Z" fill="#18218A"/>
<path opacity="0.1" d="M543.797 412.227H543.555C543.555 412.227 551.486 410.092 543.797 412.227Z" fill="black"/>
<path opacity="0.1" d="M609.359 452.103V453.273C609.268 452.888 609.268 452.488 609.359 452.103Z" fill="black"/>
<g clip-path="url(#clip1)">
<path d="M288.056 492.978L287.768 492.87C287.705 492.846 281.404 490.437 278.453 484.975C275.501 479.513 276.946 472.936 276.961 472.871L277.029 472.571L277.317 472.679C277.38 472.703 283.681 475.112 286.633 480.574C289.584 486.036 288.139 492.612 288.124 492.678L288.056 492.978ZM278.925 484.721C281.421 489.339 286.4 491.706 287.661 492.247C287.901 490.897 288.653 485.442 286.16 480.828C283.667 476.215 278.686 473.844 277.424 473.302C277.184 474.652 276.432 480.107 278.925 484.721Z" fill="#3F3D56"/>
<path d="M280.708 483.059C286.013 486.243 288.055 492.568 288.055 492.568C288.055 492.568 281.498 493.731 276.194 490.546C270.89 487.362 268.847 481.037 268.847 481.037C268.847 481.037 275.404 479.874 280.708 483.059Z" fill="#FDC204"/>
<path d="M195.316 404.639C195.573 404.242 195.911 403.904 196.308 403.647C196.706 403.39 197.153 403.219 197.62 403.146C198.088 403.074 198.566 403.1 199.023 403.225C199.48 403.349 199.905 403.569 200.271 403.868C200.386 403.964 200.495 404.067 200.596 404.178L213.805 402.259L214.54 392.347C214.597 391.586 214.953 390.879 215.532 390.381C216.111 389.883 216.864 389.635 217.626 389.691C218.388 389.748 219.096 390.104 219.595 390.681C220.095 391.258 220.343 392.01 220.287 392.77C220.286 392.788 220.284 392.806 220.283 392.823L218.995 406.732L218.989 406.763C218.821 407.297 218.485 407.764 218.031 408.093C217.577 408.422 217.028 408.596 216.467 408.589L200.93 408.322C200.87 408.414 200.804 408.502 200.735 408.587C200.434 408.953 200.06 409.25 199.636 409.461C199.212 409.671 198.748 409.79 198.275 409.81C197.802 409.829 197.33 409.748 196.891 409.573C196.451 409.398 196.053 409.131 195.724 408.792C195.657 408.724 195.594 408.653 195.534 408.58C195.086 408.03 194.824 407.353 194.785 406.645C194.746 405.937 194.932 405.235 195.316 404.639Z" fill="#FFB7B7"/>
<path d="M221.944 489.151L218.176 489.151L216.384 474.65L221.944 474.65L221.944 489.151Z" fill="#FFB7B7"/>
<path d="M222.905 492.795L210.757 492.795V492.641C210.757 491.39 211.255 490.19 212.142 489.305C213.029 488.42 214.232 487.923 215.486 487.923H215.486L222.905 487.923L222.905 492.795Z" fill="#2F2E41"/>
<path d="M248.269 485.743L244.703 486.956L238.315 473.809L243.578 472.018L248.269 485.743Z" fill="#FFB7B7"/>
<path d="M250.359 488.882L238.861 492.795L238.811 492.65C238.406 491.466 238.49 490.169 239.043 489.046C239.596 487.923 240.573 487.065 241.76 486.661L241.76 486.661L248.783 484.271L250.359 488.882Z" fill="#2F2E41"/>
<path d="M226.094 362.361C226.094 362.361 222.344 361.126 219.934 366.069C217.523 371.012 213.773 376.449 213.773 376.449L215.916 376.944C215.916 376.944 216.452 373.483 217.791 372.989L217.255 377.438C217.255 377.438 233.326 382.628 240.558 376.944L240.29 375.213C240.29 375.213 241.361 375.461 241.361 376.944L242.165 376.202C242.165 376.202 241.361 374.719 238.951 372.742C237.369 371.444 236.825 368.975 236.638 367.431C236.49 366.125 235.928 364.899 235.035 363.932C233.433 362.219 230.514 360.398 226.094 362.361Z" fill="#2F2E41"/>
<path d="M227.475 379.632C231.257 379.632 234.323 376.572 234.323 372.797C234.323 369.023 231.257 365.963 227.475 365.963C223.692 365.963 220.626 369.023 220.626 372.797C220.626 376.572 223.692 379.632 227.475 379.632Z" fill="#FFB7B7"/>
<path d="M218.343 385.259L217.098 384.845C217.098 384.845 214.607 385.881 214.607 387.745C214.607 389.609 214.192 397.064 214.192 397.064L219.796 397.686L218.343 385.259Z" fill="#CBCBCB"/>
<path d="M240.632 425.995C240.115 425.418 239.824 424.675 239.81 423.901C239.797 423.127 240.062 422.374 240.558 421.778L237.062 392.564C237.028 391.875 237.269 391.201 237.732 390.689C238.196 390.178 238.844 389.87 239.534 389.835C240.224 389.799 240.901 390.039 241.414 390.5C241.928 390.962 242.237 391.608 242.274 392.296C242.275 392.306 242.275 392.315 242.276 392.325L245.403 421.57C245.516 421.684 245.621 421.806 245.716 421.935C245.966 422.281 246.146 422.673 246.245 423.089C246.344 423.505 246.36 423.935 246.293 424.357C246.225 424.779 246.074 425.183 245.85 425.547C245.625 425.911 245.331 426.227 244.984 426.477C244.948 426.503 244.912 426.528 244.875 426.553C244.473 426.818 244.018 426.991 243.541 427.06C243.065 427.129 242.579 427.091 242.118 426.95C241.543 426.777 241.028 426.446 240.632 425.995Z" fill="#FFB7B7"/>
<path d="M237.429 397.064L243.033 396.443C243.033 396.443 242.618 388.987 242.618 387.123C242.618 385.259 240.127 384.224 240.127 384.224L238.882 384.638L237.429 397.064Z" fill="#CBCBCB"/>
<path d="M219.171 407.409C219.171 407.409 214.398 416.118 214.398 426.68C214.398 437.242 213.983 485.704 213.983 485.704C213.983 485.704 220.209 488.603 223.945 485.083L227.265 431.443L240.341 484.047C240.341 484.047 246.567 485.29 249.473 483.219L243.869 446.562C243.869 446.562 241.586 412.183 235.36 409.698C229.133 407.212 219.171 407.409 219.171 407.409Z" fill="#2F2E41"/>
<path d="M220.076 372.841C222.5 371.09 224.463 369.073 225.761 366.674C225.761 366.674 230.211 371.607 232.93 371.854C235.649 372.101 233.177 365.934 233.177 365.934L228.233 364.701L223.537 365.194L219.829 367.661L220.076 372.841Z" fill="#2F2E41"/>
<path d="M234.324 382.981C234.324 382.981 234.521 382.876 222.702 383.305L217.755 384.665L217.098 384.845C217.098 384.845 217.72 397.271 219.381 399.55C221.041 401.828 220.626 403.07 220.211 403.277C219.796 403.484 218.758 403.07 219.381 404.106C220.003 405.141 220.834 404.52 220.003 405.141C219.173 405.763 218.758 408.041 218.758 408.041L237.022 410.526C237.022 410.526 237.644 402.449 239.305 398.307C240.965 394.165 241.38 392.508 241.38 392.508L240.135 384.224L234.324 382.981Z" fill="#CBCBCB"/>
<path d="M199.6 347.655H198.55V318.945C198.55 314.538 196.796 310.311 193.673 307.195C190.55 304.079 186.314 302.328 181.898 302.328H120.942C116.525 302.328 112.29 304.079 109.167 307.195C106.044 310.311 104.289 314.538 104.289 318.945V476.453C104.289 480.86 106.044 485.086 109.167 488.203C112.289 491.319 116.525 493.069 120.941 493.069H181.898C184.085 493.069 186.25 492.64 188.27 491.805C190.291 490.97 192.127 489.746 193.673 488.203C195.219 486.66 196.446 484.828 197.283 482.812C198.119 480.796 198.55 478.635 198.55 476.453V368.092H199.6L199.6 347.655Z" fill="#3F3D56"/>
<path d="M195.007 319.062V476.338C195.008 477.966 194.688 479.579 194.065 481.083C193.442 482.588 192.528 483.956 191.376 485.108C190.223 486.261 188.854 487.175 187.347 487.8C185.84 488.424 184.225 488.746 182.593 488.748H121.322C118.026 488.75 114.864 487.446 112.532 485.122C110.199 482.798 108.888 479.644 108.886 476.355V319.062C108.884 317.433 109.205 315.821 109.828 314.316C110.452 312.811 111.366 311.443 112.519 310.291C113.672 309.138 115.042 308.224 116.549 307.6C118.056 306.975 119.672 306.653 121.304 306.652H128.752C128.386 307.547 128.246 308.519 128.345 309.48C128.444 310.442 128.778 311.365 129.319 312.167C129.859 312.97 130.589 313.627 131.444 314.081C132.299 314.536 133.253 314.774 134.222 314.774H169.144C170.113 314.774 171.067 314.536 171.922 314.081C172.777 313.627 173.507 312.97 174.048 312.167C174.588 311.365 174.922 310.442 175.021 309.48C175.12 308.519 174.981 307.547 174.615 306.652H182.571C185.866 306.649 189.028 307.953 191.36 310.276C193.692 312.599 195.004 315.751 195.007 319.04L195.007 319.062Z" fill="#F6F6F6"/>
<path d="M195.007 342.33V336.973H186.882V307.418C185.502 306.91 184.042 306.65 182.571 306.652H181.513V336.973H153.329V314.773H147.96V336.973H124.339V306.652H121.322C120.532 306.651 119.745 306.725 118.97 306.874V336.973H108.886V342.33H118.97V354.721L108.886 360.531V366.719L118.97 360.909V397.776H108.885V403.133H118.97V456.436H108.885V461.793H118.97V488.525C119.745 488.674 120.532 488.749 121.322 488.747H124.339V461.793H147.96V488.747H153.329V461.793H181.513V488.747H182.571C184.042 488.749 185.502 488.49 186.882 487.981V461.793H195.007V456.436H186.882V433.133H194.934V427.776H186.882V403.133H195.007V397.776H186.882V365.098H195.007V359.741H186.882V342.33L195.007 342.33ZM140.479 342.33L140.479 342.33L124.339 351.63L124.339 351.63V342.33H140.479ZM124.339 357.815L124.339 357.815L147.96 344.205V397.776H124.339V357.815ZM124.339 456.436V403.133H147.96V456.436H124.339ZM181.513 456.436H153.329V433.133H181.513V456.436ZM181.513 427.776H153.329V403.133H181.513V427.776ZM181.513 397.776H153.329V365.098H181.513V397.776ZM181.513 359.741H153.329V342.33H181.513V359.741Z" fill="#E5E5E5"/>
<path d="M199.497 359.84C199.497 376.852 168.628 414.75 168.628 414.75C168.628 414.75 137.76 376.852 137.76 359.84C137.76 351.67 141.012 343.835 146.801 338.059C152.59 332.282 160.441 329.036 168.628 329.036C176.815 329.036 184.667 332.282 190.456 338.059C196.245 343.835 199.497 351.67 199.497 359.84Z" fill="#2C4155"/>
<path d="M186.879 358.501C186.879 362.103 185.809 365.625 183.803 368.62C181.797 371.615 178.947 373.95 175.611 375.328C172.276 376.707 168.606 377.068 165.065 376.365C161.525 375.662 158.272 373.927 155.719 371.38C153.167 368.833 151.428 365.587 150.724 362.054C150.02 358.521 150.381 354.859 151.763 351.53C153.144 348.202 155.484 345.358 158.485 343.356C161.487 341.355 165.016 340.287 168.626 340.287C171.022 340.286 173.395 340.755 175.609 341.669C177.823 342.583 179.835 343.923 181.529 345.613C183.224 347.303 184.569 349.309 185.487 351.518C186.405 353.726 186.878 356.093 186.879 358.484V358.501Z" fill="#F6F6F6"/>
<path d="M168.567 365.691C172.322 365.691 175.367 362.653 175.367 358.905C175.367 355.158 172.322 352.12 168.567 352.12C164.811 352.12 161.766 355.158 161.766 358.905C161.766 362.653 164.811 365.691 168.567 365.691Z" fill="#0301E2"/>
<path d="M178.436 374.403C175.504 376.263 172.102 377.251 168.628 377.25C165.155 377.25 161.753 376.261 158.822 374.4C159.431 372.274 160.718 370.404 162.488 369.072C164.258 367.741 166.414 367.021 168.63 367.021C170.846 367.022 173.002 367.742 174.771 369.074C176.54 370.406 177.827 372.277 178.436 374.403Z" fill="#0301E2"/>
<path d="M168.627 436.982C173.223 436.982 176.948 433.265 176.948 428.679C176.948 424.093 173.223 420.375 168.627 420.375C164.031 420.375 160.306 424.093 160.306 428.679C160.306 433.265 164.031 436.982 168.627 436.982Z" fill="#FDC204"/>
<path d="M297.37 493.231H81.5568C81.4856 493.231 81.4173 493.203 81.3669 493.153C81.3166 493.102 81.2883 493.034 81.2883 492.963C81.2883 492.892 81.3166 492.824 81.3669 492.774C81.4173 492.724 81.4856 492.695 81.5568 492.695H297.37C297.441 492.695 297.51 492.724 297.56 492.774C297.61 492.824 297.639 492.892 297.639 492.963C297.639 493.034 297.61 493.102 297.56 493.153C297.51 493.203 297.441 493.231 297.37 493.231Z" fill="#CBCBCB"/>
</g>
<path d="M324.25 297.122C323.215 295.583 322.198 294.004 321.226 292.428L322.796 291.453C323.755 293.009 324.758 294.568 325.779 296.085L324.25 297.122Z" fill="#FDC204"/>
<path d="M315.667 282.502C313.956 279.13 312.365 275.648 310.939 272.15L312.647 271.448C314.054 274.899 315.623 278.335 317.312 281.661L315.667 282.502ZM307.083 261.44C305.951 257.835 304.955 254.136 304.124 250.447L305.924 250.038C306.744 253.678 307.726 257.326 308.843 260.883L307.083 261.44ZM302.083 239.246C301.56 235.508 301.185 231.697 300.968 227.917L302.811 227.81C303.025 231.54 303.395 235.301 303.911 238.988L302.083 239.246ZM302.621 216.575L300.776 216.532C300.865 212.746 301.11 208.924 301.504 205.173L303.34 205.368C302.951 209.069 302.709 212.84 302.621 216.575ZM304.971 194.257L303.158 193.911C303.861 190.197 304.728 186.467 305.734 182.825L307.512 183.319C306.519 186.913 305.665 190.593 304.971 194.257ZM310.948 172.631L309.217 171.989C310.522 168.442 311.992 164.904 313.587 161.474L315.259 162.257C313.686 165.641 312.236 169.131 310.948 172.631ZM563.686 166.905C562.243 163.472 560.638 160.054 558.914 156.746L560.549 155.888C562.297 159.241 563.924 162.706 565.386 166.186L563.686 166.905ZM320.409 152.279L318.807 151.36C320.676 148.079 322.706 144.833 324.84 141.713L326.361 142.761C324.256 145.84 322.253 149.042 320.409 152.279ZM553.323 147.015C551.335 143.865 549.192 140.757 546.952 137.78L548.426 136.664C550.696 139.682 552.868 142.832 554.882 146.024L553.323 147.015ZM333.072 133.768L331.641 132.598C334.022 129.666 336.552 126.798 339.163 124.073L340.493 125.356C337.917 128.046 335.42 130.875 333.072 133.768ZM539.849 129.099C537.374 126.314 534.753 123.599 532.06 121.029L533.332 119.687C536.061 122.292 538.717 125.043 541.226 127.865L539.849 129.099ZM348.574 117.583L347.354 116.195C350.177 113.694 353.139 111.278 356.158 109.017L357.262 110.501C354.283 112.733 351.361 115.115 348.574 117.583ZM523.64 113.626C520.745 111.285 517.718 109.035 514.643 106.941L515.679 105.408C518.796 107.531 521.864 109.811 524.798 112.184L523.64 113.626ZM366.496 104.159L365.518 102.589C368.713 100.583 372.028 98.6882 375.372 96.9564L376.218 98.6023C372.919 100.311 369.649 102.18 366.496 104.159ZM505.129 101.019C501.887 99.1829 498.533 97.4624 495.161 95.9055L495.932 94.2224C499.351 95.801 502.75 97.5451 506.036 99.4058L505.129 101.019ZM386.361 93.8702L385.653 92.16C389.131 90.7103 392.711 89.3895 396.293 88.2346L396.857 89.9981C393.323 91.1372 389.792 92.4399 386.361 93.8702ZM484.805 91.6359C481.313 90.3635 477.722 89.2222 474.133 88.2441L474.617 86.457C478.254 87.4482 481.894 88.6049 485.435 89.895L484.805 91.6359ZM407.644 87.0105L407.228 85.2063C410.892 84.3535 414.643 83.644 418.374 83.0969L418.64 84.9296C414.96 85.4695 411.26 86.1695 407.644 87.0106V87.0105ZM463.217 85.7525C459.569 85.0779 455.841 84.547 452.136 84.1753L452.319 82.3322C456.075 82.7093 459.854 83.247 463.551 83.9311L463.217 85.7525ZM429.77 83.7652L429.654 81.9167C433.408 81.6788 437.235 81.5942 440.995 81.6625L440.962 83.5147C437.248 83.4464 433.475 83.531 429.77 83.7652Z" fill="#FDC204"/>
<path d="M569.251 182.84C568.757 181.077 568.22 179.3 567.655 177.559L569.409 176.985C569.982 178.75 570.527 180.551 571.027 182.338L569.251 182.84Z" fill="#FDC204"/>
<path d="M557.997 79.1183H556.152C556.152 77.2648 556.184 75.3842 556.249 73.5293L558.093 73.5935C558.03 75.4276 557.997 77.2861 557.997 79.1183Z" fill="#FDC204"/>
<path d="M323.179 320.109C340.156 320.109 353.918 319.073 353.918 317.795C353.918 316.518 340.156 315.482 323.179 315.482C306.203 315.482 292.441 316.518 292.441 317.795C292.441 319.073 306.203 320.109 323.179 320.109Z" fill="#FDC204"/>
<path d="M568.324 208.277C585.301 208.277 599.063 207.241 599.063 205.963C599.063 204.685 585.301 203.65 568.324 203.65C551.348 203.65 537.586 204.685 537.586 205.963C537.586 207.241 551.348 208.277 568.324 208.277Z" fill="#FDC204"/>
<path d="M556.126 199.154L469.306 286.289L470.611 287.599L557.431 200.463L556.126 199.154Z" fill="#FDC204"/>
<path d="M443.074 298.358H339.333V300.211H443.074V298.358Z" fill="#FDC204"/>
<path d="M323.196 316.407C319.821 316.407 316.523 315.403 313.717 313.522C310.912 311.64 308.725 308.966 307.433 305.837C306.142 302.709 305.804 299.266 306.462 295.945C307.121 292.623 308.745 289.572 311.131 287.177C313.517 284.783 316.557 283.152 319.867 282.491C323.176 281.83 326.606 282.17 329.724 283.465C332.841 284.761 335.506 286.956 337.38 289.772C339.255 292.588 340.256 295.898 340.256 299.285C340.251 303.824 338.452 308.176 335.253 311.386C332.055 314.596 327.719 316.402 323.196 316.407ZM323.196 284.014C320.186 284.014 317.245 284.91 314.742 286.588C312.24 288.265 310.29 290.65 309.138 293.441C307.987 296.231 307.685 299.301 308.272 302.263C308.859 305.226 310.308 307.947 312.436 310.082C314.564 312.218 317.275 313.672 320.227 314.262C323.178 314.851 326.237 314.548 329.018 313.393C331.798 312.237 334.174 310.28 335.846 307.768C337.518 305.257 338.41 302.305 338.41 299.285C338.406 295.236 336.801 291.355 333.949 288.492C331.097 285.629 327.229 284.019 323.196 284.014Z" fill="#FDC204"/>
<path d="M459.204 316.407C455.83 316.407 452.531 315.403 449.726 313.522C446.92 311.64 444.733 308.966 443.442 305.837C442.151 302.708 441.813 299.266 442.471 295.944C443.13 292.623 444.755 289.572 447.14 287.177C449.526 284.783 452.566 283.152 455.876 282.491C459.185 281.83 462.615 282.17 465.733 283.465C468.85 284.761 471.515 286.956 473.389 289.772C475.264 292.588 476.264 295.898 476.264 299.285C476.259 303.824 474.46 308.177 471.262 311.387C468.064 314.597 463.727 316.402 459.204 316.407ZM459.204 284.014C456.195 284.014 453.253 284.91 450.751 286.588C448.249 288.266 446.299 290.651 445.147 293.441C443.996 296.231 443.694 299.302 444.281 302.264C444.868 305.226 446.318 307.947 448.445 310.082C450.573 312.218 453.284 313.672 456.236 314.262C459.187 314.851 462.246 314.549 465.026 313.393C467.807 312.237 470.183 310.28 471.855 307.768C473.527 305.257 474.419 302.305 474.419 299.285C474.414 295.236 472.81 291.355 469.958 288.492C467.105 285.629 463.238 284.019 459.204 284.014Z" fill="#FDC204"/>
<path d="M568.329 204.575C564.954 204.575 561.656 203.571 558.85 201.69C556.045 199.808 553.858 197.134 552.567 194.005C551.276 190.877 550.938 187.434 551.596 184.113C552.255 180.791 553.879 177.74 556.265 175.346C558.651 172.951 561.691 171.32 565 170.66C568.31 169.999 571.74 170.338 574.857 171.634C577.975 172.93 580.639 175.124 582.514 177.94C584.388 180.756 585.389 184.066 585.389 187.453C585.384 191.992 583.585 196.345 580.386 199.555C577.188 202.765 572.852 204.57 568.329 204.575ZM568.329 172.183C565.319 172.183 562.378 173.079 559.876 174.756C557.374 176.434 555.424 178.819 554.272 181.61C553.121 184.4 552.819 187.47 553.406 190.432C553.994 193.394 555.443 196.115 557.57 198.251C559.698 200.386 562.409 201.841 565.361 202.43C568.312 203.019 571.371 202.716 574.151 201.561C576.932 200.405 579.308 198.448 580.979 195.936C582.651 193.425 583.544 190.473 583.544 187.453C583.539 183.404 581.934 179.523 579.082 176.66C576.23 173.798 572.362 172.187 568.329 172.183V172.183Z" fill="#FDC204"/>
<path d="M323.179 198.25C319.143 198.25 315.146 199.048 311.417 200.599C307.687 202.149 304.299 204.421 301.444 207.286C298.59 210.151 296.326 213.552 294.781 217.295C293.236 221.037 292.441 225.049 292.441 229.1C292.441 246.138 323.179 302.369 323.179 302.369C323.179 302.369 353.918 246.138 353.918 229.1C353.918 225.049 353.122 221.037 351.578 217.295C350.033 213.552 347.769 210.151 344.915 207.286C342.06 204.421 338.672 202.149 334.942 200.599C331.213 199.048 327.216 198.25 323.179 198.25ZM323.179 245.297C319.988 245.297 316.868 244.347 314.214 242.567C311.56 240.787 309.492 238.258 308.27 235.298C307.049 232.339 306.729 229.082 307.352 225.941C307.975 222.799 309.512 219.913 311.769 217.648C314.025 215.383 316.901 213.84 320.031 213.215C323.162 212.59 326.406 212.911 329.355 214.137C332.304 215.363 334.824 217.439 336.597 220.102C338.37 222.766 339.317 225.897 339.317 229.1C339.317 233.396 337.617 237.515 334.59 240.553C331.564 243.59 327.459 245.297 323.179 245.297Z" fill="#FDC204"/>
<path d="M568.324 82.5627C560.172 82.5628 552.354 85.813 546.589 91.5985C540.825 97.3839 537.586 105.231 537.586 113.413C537.586 130.451 568.324 186.681 568.324 186.681C568.324 186.681 599.063 130.45 599.063 113.413C599.063 109.361 598.268 105.35 596.723 101.607C595.178 97.864 592.914 94.4631 590.06 91.5984C587.205 88.7338 583.817 86.4614 580.087 84.911C576.358 83.3607 572.361 82.5627 568.324 82.5627ZM568.324 129.609C565.133 129.609 562.013 128.659 559.359 126.879C556.705 125.1 554.637 122.57 553.415 119.611C552.194 116.651 551.874 113.395 552.497 110.253C553.12 107.111 554.657 104.225 556.913 101.96C559.17 99.6951 562.046 98.1526 565.176 97.5277C568.307 96.9027 571.551 97.2235 574.5 98.4493C577.449 99.6752 579.969 101.751 581.742 104.415C583.515 107.078 584.462 110.209 584.462 113.413C584.462 117.708 582.762 121.828 579.735 124.865C576.709 127.902 572.604 129.609 568.324 129.609Z" fill="#FDC204"/>
</g>
<defs>
<linearGradient id="paint0_linear" x1="204.187" y1="372.282" x2="204.187" y2="372.197" gradientUnits="userSpaceOnUse">
<stop stop-color="#808080" stop-opacity="0.25"/>
<stop offset="0.54" stop-color="#808080" stop-opacity="0.12"/>
<stop offset="1" stop-color="#808080" stop-opacity="0.1"/>
</linearGradient>
<clipPath id="clip0">
<rect width="818.439" height="530.006" fill="white"/>
</clipPath>
<clipPath id="clip1">
<rect width="216.35" height="190.903" fill="white" transform="translate(81.2883 302.328)"/>
</clipPath>
</defs>
</svg>
