<svg width="19" height="23" viewBox="0 0 19 23" fill="none" xmlns="http://www.w3.org/2000/svg">
<path d="M9.56608 0.922363C6.49532 0.922363 3.99269 3.69965 3.99269 7.10755C3.99179 7.18129 4.00159 7.25471 4.02172 7.32499C4.07445 9.49435 4.92136 11.3931 5.91822 13.1531C6.94745 14.9703 8.14031 16.6757 8.90569 18.4148C8.95599 18.5296 9.03411 18.6266 9.13128 18.6949C9.22846 18.7633 9.34087 18.8002 9.45589 18.8016C9.57092 18.803 9.68402 18.7688 9.78253 18.7029C9.88103 18.6369 9.96104 18.5419 10.0136 18.4283C10.8172 16.6905 12.0713 14.9839 13.1535 13.1666C14.2356 11.3494 15.1588 9.38678 15.1588 7.11833C15.1598 7.0312 15.1459 6.94465 15.1177 6.8633C14.9992 3.57034 12.5616 0.92241 9.56608 0.92241L9.56608 0.922363ZM9.56608 2.29685C11.9675 2.29685 13.9009 4.44256 13.9009 7.10755C13.9002 7.1571 13.9042 7.20661 13.9131 7.2552C13.8762 9.05274 13.1284 10.7172 12.1206 12.4095C11.2686 13.8402 10.3055 15.3174 9.47416 16.8524C8.68506 15.324 7.77596 13.8494 6.96807 12.4229C5.98484 10.687 5.25057 8.97906 5.25057 7.11828C5.25056 7.07778 5.24733 7.03735 5.2409 6.99748C5.29457 4.38503 7.19866 2.29685 9.56608 2.29685ZM9.56608 5.0485C8.54738 5.0485 7.70828 5.97972 7.70828 7.11023C7.70828 8.24074 8.54738 9.17196 9.56608 9.17196C10.5848 9.17196 11.4239 8.24074 11.4239 7.11023C11.4239 5.97972 10.5848 5.0485 9.56608 5.0485ZM9.56608 6.42299C9.91543 6.42299 10.1853 6.72263 10.1853 7.11023C10.1853 7.49797 9.91543 7.79747 9.56608 7.79747C9.21673 7.79747 8.94681 7.49797 8.94681 7.11023C8.94681 6.72263 9.21673 6.42299 9.56608 6.42299ZM14.6315 13.6068C14.4868 13.6067 14.3467 13.6629 14.2354 13.7655C14.1241 13.8681 14.0487 14.0107 14.0223 14.1685C13.9958 14.3264 14.02 14.4895 14.0907 14.6297C14.1613 14.7698 14.2739 14.8781 14.4089 14.9357C15.6433 15.4905 16.4368 16.2181 16.7796 16.8873C17.1223 17.5566 17.1143 18.1349 16.6659 18.847C15.769 20.2711 12.9062 21.5323 9.63865 21.5477C6.37107 21.5628 3.46839 20.3341 2.51951 18.9061C2.04507 18.1921 2.02154 17.6096 2.34051 16.9437C2.65947 16.2779 3.42373 15.5441 4.63856 14.9786C4.71579 14.9455 4.78625 14.8955 4.84577 14.8316C4.90529 14.7677 4.95267 14.6912 4.98509 14.6067C5.01751 14.5221 5.03433 14.4312 5.03454 14.3393C5.03475 14.2474 5.01836 14.1564 4.98633 14.0717C4.9543 13.9869 4.90728 13.9102 4.84805 13.846C4.78883 13.7817 4.7186 13.7314 4.64153 13.6978C4.56445 13.6642 4.48209 13.6481 4.39931 13.6505C4.31653 13.6528 4.23502 13.6736 4.1596 13.7115C2.77166 14.3575 1.7611 15.2264 1.24712 16.2994C0.733133 17.3723 0.82209 18.6676 1.52289 19.7222C2.92447 21.8316 6.11916 22.9389 9.64591 22.9222C13.1726 22.9057 16.3373 21.7713 17.6818 19.6363C18.3541 18.5687 18.3996 17.2697 17.856 16.2081C17.3124 15.1466 16.2787 14.2922 14.8734 13.6605C14.7968 13.6248 14.7145 13.6065 14.6315 13.6068V13.6068Z" fill="#2C4155"/>
</svg>
