<svg width="23" height="27" viewBox="0 0 23 27" fill="none" xmlns="http://www.w3.org/2000/svg">
<path d="M14.3328 14.8089V8.83561C14.6623 9.28876 14.8683 9.8243 14.8683 10.401V13.7791H16.269V10.401C16.269 8.75322 15.2803 7.31138 13.8384 6.65225C14.4152 6.03432 14.7859 5.21041 14.7859 4.34531C14.7859 2.49152 13.2617 0.967285 11.4491 0.967285C9.63649 0.967285 8.11226 2.49152 8.11226 4.34531C8.11226 5.25161 8.48302 6.07552 9.05976 6.65225C7.61792 7.31138 6.62923 8.71203 6.62923 10.401V13.7791H8.02987V10.401C8.02987 9.8243 8.23585 9.28876 8.56541 8.83561V14.8089C4.85782 15.3857 2.30371 17.0335 1.85056 19.0521H0.738281V20.4527H1.89175C2.55088 22.8421 6.17608 24.6135 10.8312 24.7782V26.2613H12.2318V24.7782C16.8869 24.6135 20.5121 22.8009 21.1712 20.4527H22.4071V19.0521H21.2124C20.5945 17.0335 18.0404 15.4269 14.3328 14.8089ZM12.067 23.4188V22.6773H10.6664V23.4188C7.41194 23.254 3.99272 22.1417 3.21001 20.4527H5.51695V19.0521H3.16881C3.70435 17.8162 5.76412 16.7039 8.44183 16.2096V19.3816C8.44183 20.3703 9.26573 21.1942 10.2544 21.1942C10.4604 21.1942 10.6664 21.153 10.8724 21.0707V15.2209H11.9022V21.0707C12.1082 21.153 12.3142 21.1942 12.5202 21.1942C13.5089 21.1942 14.3328 20.3703 14.3328 19.3816V16.2508C17.0105 16.7451 19.0702 17.8162 19.6058 19.0933H17.34V20.4939H19.5646C18.7407 22.1005 15.3627 23.254 12.067 23.4188Z" fill="#2C4155"/>
</svg>
