<svg width="293" height="145" viewBox="0 0 293 145" fill="none" xmlns="http://www.w3.org/2000/svg">
<g opacity="0.07">
<path d="M157.803 40.5581C158.201 41.1671 158.635 41.4214 159.15 41.6094C160.822 42.2208 162.356 42.5024 164.314 42.7548C167.306 43.1406 170.529 43.7776 173.475 44.4493C177.243 45.3086 180.941 46.4713 184.611 47.7129C187.936 48.8377 191.22 50.103 194.446 51.51C197.514 52.8484 200.525 54.3529 203.487 55.9346C206.009 57.2819 208.481 58.7263 210.911 60.2494C213.404 61.8126 215.854 63.4629 218.246 65.1919C220.984 67.1714 223.631 69.2653 226.269 71.3895C227.798 72.6211 229.341 73.8522 230.789 75.1866C231.767 76.0872 231.673 76.2305 232.945 77.1322C233.919 77.8232 235.11 77.7247 236.208 77.1793C237.306 76.6339 239.127 75.5004 239.127 75.5004C239.127 75.5004 236.94 73.7875 235.22 72.5349C235.251 72.5402 235.295 72.5621 235.325 72.5663C236.418 72.7244 237.825 72.297 238.917 72.127C239.58 72.0238 240.269 71.9937 240.938 72.0328C242.393 72.1179 243.819 72.4729 245.249 72.7703C252.295 74.2355 259.337 75.8128 266.235 77.9167C271.204 79.4324 276.122 81.171 280.889 83.2828C282.474 83.985 284.081 84.693 285.499 85.7148C286.807 86.657 288.029 87.7706 289.017 89.0725C289.949 90.3018 290.593 91.7626 291.232 93.1833C291.828 94.5092 292.453 95.8417 292.729 97.2785C293.159 99.5146 292.952 101.838 292.939 104.119C292.924 106.577 292.854 109.048 292.624 111.494C292.388 114.002 292.04 116.178 291.936 118.696C291.914 119.223 291.922 120.083 292.13 120.563C292.287 120.924 292.32 120.999 292.43 121.379C292.529 121.721 292.369 122.101 292.235 122.43C291.914 123.217 291.406 123.927 290.828 124.533C290.539 124.835 290.122 124.976 289.825 125.27C289.392 125.699 289.141 126.306 288.717 126.745C287.818 127.677 286.831 128.55 285.709 129.161C284.121 130.025 282.334 130.443 280.59 130.856C278.711 131.3 276.776 131.521 274.857 131.687C273.522 131.803 272.389 131.953 270.845 131.797C269.741 131.775 269.916 131.786 268.914 131.766C269.732 129.307 270.186 126.656 270.186 123.905C270.186 110.747 260.002 100.087 247.449 100.087C234.896 100.087 224.727 110.747 224.727 123.905C224.727 126.328 225.073 128.668 225.715 130.871C224.997 130.859 225.136 130.869 224.368 130.856C174.49 130.219 148.736 129.343 110.921 128.753C110.257 128.743 109.615 128.72 108.96 128.706C109.348 126.961 109.559 125.146 109.559 123.277C109.559 110.119 99.3894 99.4595 86.8367 99.4595C74.2839 99.4595 64.0994 110.119 64.0994 123.277C64.0994 124.1 64.1416 124.908 64.2192 125.709C63.5342 125.586 62.8738 125.365 62.2433 125.066C60.9246 124.44 59.7406 123.502 58.621 122.54C57.4132 121.502 56.32 120.323 55.3129 119.072C54.6782 118.284 53.8668 117.541 53.6065 116.546C53.2779 115.29 53.8415 115.577 53.9059 112.639C54.0073 108.009 53.9017 103.374 54.2052 98.7534C54.3257 96.9216 54.3602 94.836 54.804 93.2775C54.9597 92.7303 55.459 92.1949 55.8069 91.7555C56.1274 91.3506 56.757 91.2746 56.8098 90.7514C57.0104 88.7616 57.0317 86.6827 57.1241 84.6478C57.1837 83.3349 57.1121 82.0178 57.2139 80.7096C57.2263 80.7975 57.2483 80.8902 57.2738 80.9763C57.4008 81.4053 57.8667 81.6305 58.0671 82.0276C58.28 82.4493 58.3951 82.9222 58.4713 83.3926C58.6198 84.3097 58.6155 85.2562 58.576 86.1855C58.5349 87.1569 58.2887 88.103 58.2168 89.0725C58.1714 89.6847 57.9336 90.3629 58.1719 90.9239C58.3505 91.3445 58.7688 91.6427 59.1748 91.8183C59.966 92.1605 60.8851 92.1339 61.7344 92.0223C62.6112 91.907 63.491 91.6038 64.2491 91.1279C65.7421 90.1908 66.8428 88.6909 68.0661 87.3936C70.0726 85.2658 72.1062 83.1421 73.829 80.7566C74.269 80.1474 74.8571 79.5639 74.9816 78.811C75.0897 78.1569 74.9588 77.407 74.5924 76.8655C73.8885 75.8252 72.5762 75.4239 71.4789 74.8728C70.1808 74.2208 68.8123 73.6646 67.4075 73.3351C66.3904 73.0966 65.3362 73.0286 64.294 73.0213C63.2867 73.0143 62.2542 72.9988 61.2854 73.2881C60.4002 73.5523 59.4824 73.925 58.8305 74.606C58.7439 74.6965 58.6618 74.8004 58.591 74.9042C59.2347 73.3014 60.1995 71.8899 61.1506 70.4638C61.3348 70.3931 63.4301 69.5783 64.5934 69.287C65.4335 69.0767 67.0033 69.0831 67.0033 69.0831C67.0033 69.0831 69.0342 65.9974 70.1617 64.5486C71.5319 62.7879 72.9799 61.0976 74.5325 59.512C76.2237 57.785 78.0168 56.1479 79.9062 54.6637C81.7742 53.1963 85.7739 50.6627 85.7739 50.6627L82.4808 48.9524C82.9707 48.3845 82.2969 46.9121 82.8101 46.2537C83.1994 45.7543 83.8507 45.7543 84.6662 45.7359C86.8745 45.6863 88.9437 45.561 91.1476 45.4064C93.972 45.2083 96.7684 44.7429 99.5749 44.3552C102.357 43.9708 105.123 43.4051 107.912 43.0843C113.683 42.4205 119.477 42.0114 125.276 41.7192C131.628 41.3992 138.005 41.5065 144.361 41.2956C146.738 41.2167 149.111 41.1121 151.486 40.9818C153.595 40.866 155.691 40.5054 157.803 40.5581ZM141.247 46.5048C141.247 46.5048 136.596 46.5119 134.272 46.6146C130.92 46.7627 127.569 47.0407 124.228 47.352C120.809 47.6707 117.388 48.0065 113.99 48.5131C111.517 48.8817 108.943 49.3414 106.61 49.8782C106.051 50.0068 105.269 50.377 105.248 50.9765C105.116 54.6648 105.095 58.1756 105.053 61.7714C105.009 65.6121 105.008 73.2881 105.008 73.2881C105.008 73.2881 117.423 73.3919 123.629 73.5077C130.373 73.6335 143.852 74.0255 143.852 74.0255L141.247 46.5048ZM152.189 46.5675C152.189 46.5675 153.786 55.854 154.794 60.4534C155.855 65.296 158.416 74.8728 158.416 74.8728C158.416 74.8728 165.844 75.2058 169.553 75.5004C176.426 76.0463 183.286 76.7868 190.135 77.6029C192.716 77.9105 197.469 78.2933 197.469 78.2933C197.469 78.2933 197.445 76.3189 197.709 75.3906C197.973 74.4581 199.011 72.8174 199.011 72.8174L195.059 56.1386C195.059 56.1386 190.613 54.1125 188.323 53.2987C184.771 52.0357 181.135 51.0539 177.486 50.1449C173.802 49.2272 170.079 48.4112 166.335 47.8227C163.407 47.3628 160.454 47.1269 157.503 46.8813C155.732 46.7339 152.189 46.5675 152.189 46.5675ZM99.2306 51.8708C99.2306 51.8708 95.9774 52.6968 94.4108 53.2987C92.2174 54.1413 90.0501 55.1054 88.0341 56.3426C85.5129 57.8898 83.1504 59.752 80.954 61.7714C79.4594 63.1457 77.8922 64.5235 76.8377 66.2902C75.9049 67.8529 76.3824 67.7822 77.7508 68.4555C80.599 69.8568 83.7709 70.397 86.8367 71.1385C89.7691 71.8477 95.713 72.8174 95.713 72.8174L99.2306 51.8708ZM197.364 57.1898C198.428 61.7516 199.958 66.6733 201.032 71.2326C201.032 71.2326 202.687 70.8333 203.487 70.9188C204.173 70.9922 205.43 71.4229 206.346 71.923C207.144 72.3594 208.104 73.0029 208.8 73.6019C209.55 74.2473 210.411 75.399 210.761 76.3477C211.27 77.7251 210.761 80.333 210.761 80.333C210.761 80.333 212.749 80.5219 214.024 80.6625C215.293 80.8024 217.841 80.9763 217.841 80.9763C217.841 80.9763 216.604 75.5842 215.731 72.9743C215.141 71.2096 213.62 67.8122 213.62 67.8122C213.62 67.8122 211.755 65.907 210.716 65.0821C208.726 63.5014 206.558 62.1656 204.385 60.8771C202.105 59.5257 197.364 57.1898 197.364 57.1898ZM262.208 82.3257C261.853 82.3161 261.508 82.3586 261.205 82.5453C260.908 82.7285 260.684 83.1424 260.711 83.5024C260.759 84.125 261.4 84.5332 261.819 84.9773C263.208 86.4499 264.882 87.5805 266.429 88.8685C268.594 90.6712 270.667 92.6086 272.956 94.2346C273.948 94.9401 274.952 95.658 276.069 96.1174C277.059 96.5248 278.13 96.6939 279.182 96.8549C281.141 97.1544 283.116 97.3068 285.095 97.2785C285.801 97.2684 286.611 97.4731 287.206 97.0745C287.597 96.812 287.613 96.1794 287.909 95.8036C288.362 95.2285 288.951 94.7679 289.526 94.3287C289.841 94.0879 290.461 94.104 290.529 93.7011C290.73 92.4978 289.113 91.7498 288.313 90.8612C287.566 90.0305 286.919 88.9687 285.903 88.5547C285.436 88.364 284.895 88.6756 284.406 88.5547C283.168 88.2484 282.164 87.2885 280.994 86.766C279.523 86.1096 277.991 85.5961 276.473 85.0715C274.945 84.5433 273.414 83.9816 271.848 83.5966C270.461 83.2557 269.056 83.0441 267.642 82.8591C266.442 82.7022 265.227 82.598 264.019 82.5453C263.434 82.5198 262.8 82.3416 262.208 82.3257ZM86.8367 102.441C97.8139 102.441 106.715 111.771 106.715 123.277C106.715 134.784 97.8139 144.114 86.8367 144.114C75.8594 144.114 66.9584 134.784 66.9584 123.277C66.9584 111.771 75.8594 102.441 86.8367 102.441ZM247.449 103.068C258.426 103.068 267.327 112.398 267.327 123.905C267.327 135.411 258.426 144.742 247.449 144.742C236.472 144.742 227.586 135.411 227.586 123.905C227.586 112.398 236.472 103.068 247.449 103.068ZM86.8367 108.12C78.8528 108.12 72.377 114.908 72.377 123.277C72.377 131.646 78.8528 138.434 86.8367 138.434C94.8206 138.434 101.281 131.646 101.281 123.277C101.281 114.908 94.8206 108.12 86.8367 108.12ZM247.449 108.748C239.465 108.748 233.005 115.536 233.005 123.905C233.005 132.274 239.465 139.062 247.449 139.062C255.433 139.062 261.909 132.274 261.909 123.905C261.909 115.536 255.433 108.748 247.449 108.748Z" fill="white"/>
<path d="M39.9559 25.8097L41.0648 19.4449C41.0648 19.4449 41.4178 17.9161 40.5124 17.5673C39.607 17.2185 34.9679 16.4132 34.9679 16.4132C34.9679 16.4132 33.9919 16.6931 34.05 17.3821C34.1082 18.0712 32.2891 29.9051 32.2891 29.9051C32.2891 29.9051 32.3264 30.2625 32.8747 30.607C33.4229 30.9515 37.5512 31.3606 37.5512 31.3606C37.5512 31.3606 38.7224 30.8654 38.8386 30.607C38.9549 30.3486 39.9559 25.8097 39.9559 25.8097Z" fill="white"/>
<path d="M39.9559 25.8097L41.0648 19.4449C41.0648 19.4449 41.4178 17.9161 40.5124 17.5673C39.607 17.2185 34.9679 16.4132 34.9679 16.4132C34.9679 16.4132 33.9919 16.6931 34.05 17.3821C34.1082 18.0712 32.2891 29.9051 32.2891 29.9051C32.2891 29.9051 32.3264 30.2625 32.8747 30.607C33.4229 30.9515 37.5512 31.3606 37.5512 31.3606C37.5512 31.3606 38.7224 30.8654 38.8386 30.607C38.9549 30.3486 39.9559 25.8097 39.9559 25.8097Z" fill="url(#paint0_linear)"/>
<path d="M11.019 29.9526C11.019 29.9526 1.46665 42.2344 0.507258 52.5783C-0.452129 62.9222 5.86487 73.4383 5.86487 73.4383H11.019L9.86024 58.2368L11.019 29.9526Z" fill="white"/>
<path d="M11.019 29.9526C11.019 29.9526 1.46665 42.2344 0.507258 52.5783C-0.452129 62.9222 5.86487 73.4383 5.86487 73.4383H11.019L9.86024 58.2368L11.019 29.9526Z" fill="url(#paint1_linear)"/>
<path opacity="0.28" d="M6.86622 39.6812C6.86622 39.6812 1.63735 47.5489 2.45969 57.0057C3.28202 66.4624 6.72086 70.3554 6.72086 70.3554L7.83807 67.1988L6.86622 39.6812Z" fill="url(#paint2_linear)"/>
<path d="M39.4706 25.6036L40.5961 19.2388C40.5961 19.2388 40.9492 17.71 40.0438 17.3612C39.1384 17.0124 34.4951 16.2071 34.4951 16.2071C34.4951 16.2071 33.5233 16.487 33.5814 17.176C33.6396 17.865 31.7914 29.686 31.7914 29.686C31.7914 29.686 31.8288 30.0434 32.377 30.3879C32.9252 30.7325 37.0535 31.1416 37.0535 31.1416C37.0535 31.1416 38.2205 30.6463 38.341 30.3879C38.4614 30.1296 39.4706 25.6036 39.4706 25.6036Z" fill="white"/>
<path d="M39.0245 25.0266L39.9839 19.5317C39.9839 19.5317 40.2871 18.2096 39.5063 17.9082C38.7255 17.6067 34.7176 16.9091 34.7176 16.9091C34.7176 16.9091 33.887 17.1546 33.9244 17.7489C33.9618 18.3431 32.3918 28.5708 32.3918 28.5708C32.3918 28.5708 32.4251 28.8765 32.8985 29.1779C33.372 29.4794 36.9396 29.8239 36.9396 29.8239C36.9396 29.8239 37.9488 29.3933 38.0485 29.1779C38.1482 28.9626 39.0245 25.0266 39.0245 25.0266Z" fill="url(#paint3_linear)"/>
<path d="M6.82662 128.176C7.35823 130.975 7.20871 133.981 8.55435 136.47C9.82938 136.901 10.577 135.019 10.6849 133.636L13.8123 93.5141C14.0739 90.1594 11.0629 87.5498 7.99782 89.5996C5.18611 91.4772 5.9586 96.3864 5.96691 99.2588C5.99183 108.922 3.60374 111.183 6.82662 128.176Z" fill="white"/>
<path d="M18.0748 127.074C18.3489 129.658 18.6438 132.332 19.7361 134.696C19.8856 135.028 20.0933 135.381 20.438 135.458C21.0859 135.596 21.4347 134.705 21.5178 134.029C22.9493 122.407 23.7204 110.708 23.827 98.9922C23.827 96.6711 23.802 94.1949 22.581 92.257C21.36 90.3192 17.2649 88.9627 15.5663 91.0168C13.8676 93.0709 15.5663 99.6941 15.7864 102.162C16.4426 110.473 17.2054 118.777 18.0748 127.074Z" fill="url(#paint4_linear)"/>
<path d="M25.3814 13.9975C25.3025 15.6727 25.0035 22.6102 23.745 23.6825C22.5738 24.6644 20.5845 24.1691 19.6791 25.4051C18.8484 26.5678 18.782 28.3032 18.5702 29.7373C18.483 30.3401 17.2204 29.0439 16.7552 29.4143C15.9246 30.0775 12.7516 30.9646 12.926 29.9009C13.1824 28.5357 13.2189 27.1358 13.034 25.7582L12.2033 20.0092C11.8295 17.378 11.4516 14.708 11.788 12.0682C12.1244 9.42844 13.2499 6.78864 15.3473 5.25558C18.2545 3.1024 20.9001 4.89384 22.7026 7.56379C24.3348 9.97535 25.506 11.2328 25.3814 13.9975Z" fill="url(#paint5_linear)"/>
<path d="M11.2676 0.940858C8.64697 2.50838 7.34286 5.7037 6.82787 8.79567C6.31287 11.8876 6.41255 15.0744 5.73143 18.1276C5.0503 21.1808 3.35165 24.2641 0.510864 25.3493C2.20121 26.2106 3.90817 27.0719 5.74389 27.4552C7.5796 27.8384 9.58143 27.7738 11.2095 26.8135L10.9686 27.9891C12.8957 27.8772 14.9058 27.7437 16.5629 26.7188C18.7517 25.3623 19.8855 22.7354 20.5126 20.1774C21.6506 15.5567 21.5925 10.7034 21.4803 5.96639C21.5072 5.02467 21.3779 4.08517 21.0982 3.18878C19.7609 -0.36397 13.9838 -0.686948 11.2676 0.940858Z" fill="white"/>
<path d="M25.7911 2.40471C26.2954 2.71909 26.712 3.16437 26.9997 3.69662C27.2387 4.2744 27.3698 4.89402 27.3859 5.52252C27.5097 6.54122 27.5236 7.57105 27.4274 8.59296C27.326 9.62231 26.8946 10.5867 26.2023 11.3318C25.5427 11.9094 24.7809 12.3482 23.9595 12.6237L24.2669 11.1294L22.6056 12.6797C22.5665 12.2815 22.6572 11.8813 22.8631 11.5428L21.2807 12.3266C21.5056 10.6711 21.5293 8.99283 21.3513 7.33119C21.1852 5.75937 20.4293 5.51391 19.4533 4.52344C18.5853 3.66217 18.4649 2.97745 19.5073 2.23676C21.3056 0.966381 24.0509 1.28505 25.7911 2.40471Z" fill="white"/>
<path d="M20.1932 30.0038C20.9408 30.5464 21.6053 31.2096 22.3529 31.7565C22.8391 32.0445 23.2631 32.4329 23.5988 32.8977C24.2038 34.628 24.6773 36.4048 25.0151 38.2117C25.0524 39.9343 23.9352 38.0179 23.9145 39.7491L23.5781 63.2231C23.5781 64.192 23.5407 65.1997 23.1004 66.0481C22.3446 67.5122 20.6085 68.072 19.0552 68.3993C16.9689 68.8337 14.8523 69.0929 12.7258 69.1745C11.7777 69.258 10.8228 69.1661 9.90575 68.9032C8.24448 68.3434 7.04005 66.806 6.41292 65.1222C5.78579 63.4384 5.65704 61.6082 5.58228 59.8081C5.16696 51.0404 5.45769 42.0142 8.65149 33.8838C9.38661 32.0062 10.8153 29.487 12.7548 28.7162C15.0931 27.7774 18.2121 28.5698 20.1932 30.0038Z" fill="white"/>
<path d="M20.5281 39.681C20.5281 39.681 19.3569 39.9695 18.9665 44.9003C18.5761 49.8311 21.2259 67.4958 17.5627 68.3226C17.5627 68.3226 20.985 68.6972 22.4303 66.9446C23.8756 65.1919 23.6762 56.1399 23.6762 56.1399V38.9144L20.5281 39.681Z" fill="url(#paint6_linear)"/>
<path d="M30.8474 91.1804C28.6795 82.9983 25.5853 74.3511 22.7404 66.3973C22.754 66.4342 22.7574 66.4744 22.75 66.5133C22.7427 66.5521 22.7249 66.588 22.6989 66.6169C22.3375 67.1078 20.2526 67.4782 18.8405 67.827H18.7782L18.5332 67.8873C14.2969 68.9725 12.0002 68.6021 7.7889 67.4222C5.16408 74.6956 2.74277 82.3394 0.117954 89.6129C0.00957848 89.8425 -0.0253383 90.102 0.0182783 90.3536C0.110074 90.5711 0.26365 90.7543 0.458516 90.879L2.49773 92.5111C2.69293 91.9082 2.91305 91.301 3.09164 90.6981C2.99611 92.4852 1.92874 95.3188 1.84568 97.106L1.88306 97.1404C2.06194 97.3107 2.2789 97.432 2.51434 97.4935C3.84752 97.8725 6.04456 96.9165 7.23237 97.4935C8.65276 98.1869 10.584 98.5098 11.6015 97.2739C11.2983 98.2558 11.3067 99.7415 12.2951 99.8793C12.7438 99.8756 13.18 99.7249 13.5411 99.4486C15.4806 98.3462 17.8355 98.6218 20.0491 98.5874C22.051 98.5658 24.3061 98.0835 25.4898 96.4988C25.4969 96.7429 25.5782 96.9785 25.7222 97.1719C25.8661 97.3652 26.0653 97.5065 26.2914 97.5754C26.9933 97.7304 27.6785 97.3084 28.3098 96.9423C28.5021 96.8287 28.702 96.7294 28.9079 96.6452C29.2092 96.5123 29.4626 96.2844 29.6318 95.9937C29.8011 95.703 29.8776 95.3644 29.8507 95.026C29.8423 94.8998 29.8423 94.7732 29.8507 94.647C29.9452 94.7934 30.082 94.905 30.2415 94.9659C30.401 95.0268 30.5749 95.0339 30.7385 94.9861C30.902 94.9383 31.0468 94.8382 31.1522 94.6999C31.2575 94.5617 31.318 94.3924 31.325 94.2164C31.3122 93.1854 31.1512 92.1622 30.8474 91.1804ZM25.7971 95.9475C25.6901 96.0046 25.603 96.095 25.5479 96.2059C25.44 96.0681 25.6642 95.827 25.7971 95.9475ZM25.6518 96.2576C25.7135 96.1655 25.769 96.0691 25.8179 95.9691C25.9134 96.0811 25.7764 96.2533 25.6435 96.2576H25.6518Z" fill="white"/>
<path d="M30.8474 91.1804C28.6795 82.9983 25.5853 74.3511 22.7404 66.3973C22.7455 66.473 22.7311 66.5488 22.6989 66.6169C22.3832 67.3404 20.3025 67.5083 18.8405 67.827H18.7782L18.5332 67.8873C14.2969 68.9725 12.0459 68.3696 7.83458 67.1896C5.20977 74.4717 2.74277 82.3524 0.117954 89.6258C0.00957848 89.8554 -0.0253383 90.1149 0.0182784 90.3665C0.110074 90.584 0.26365 90.7673 0.458516 90.8919L2.49773 92.524C2.69293 91.9211 2.91305 91.3139 3.09164 90.711C2.99611 92.4981 1.92874 95.3317 1.84568 97.1189L1.88306 97.1533C2.07839 97.298 2.29048 97.4166 2.51434 97.5064C3.84752 97.8854 6.04456 96.9294 7.23237 97.5064C8.69429 97.1361 10.4345 98.4151 11.4769 97.4246C11.5229 97.3834 11.566 97.3388 11.6057 97.2911C11.3025 98.273 11.3108 99.7587 12.2993 99.8965C12.748 99.8929 13.1841 99.7421 13.5452 99.4659C15.4848 98.3634 17.8396 98.639 20.0533 98.6046C22.0551 98.583 24.3103 98.1007 25.494 96.516C25.501 96.7601 25.5824 96.9957 25.7263 97.1891C25.8703 97.3825 26.0695 97.5237 26.2955 97.5926C26.9974 97.7476 27.6827 97.3256 28.314 96.9595C28.5063 96.8459 28.7061 96.7466 28.912 96.6624C29.2073 96.5495 29.4593 96.3402 29.63 96.0661C29.8008 95.792 29.8811 95.4678 29.859 95.1423C29.8486 94.9831 29.8486 94.8234 29.859 94.6643C29.9535 94.8106 30.0904 94.9222 30.2498 94.9831C30.4093 95.0441 30.5832 95.0511 30.7468 95.0033C30.9103 94.9556 31.0551 94.8554 31.1605 94.7172C31.2658 94.5789 31.3263 94.4097 31.3333 94.2336C31.3194 93.1964 31.1556 92.1672 30.8474 91.1804Z" fill="url(#paint7_linear)"/>
<path d="M7.78314 130.824C7.25984 130.824 6.61609 130.824 6.3586 131.298C6.25314 131.554 6.22141 131.837 6.26723 132.112L6.62855 137.008C6.67839 137.689 6.76561 138.446 7.26815 138.881C7.58367 139.123 7.96426 139.255 8.35628 139.26C9.24663 139.269 10.1271 139.067 10.9313 138.67C11.2816 138.554 11.5889 138.328 11.8117 138.024C11.9726 137.681 12.0319 137.296 11.982 136.918C11.9405 135.626 11.874 134.312 11.7951 133.012C11.7453 132.185 11.7951 130.622 10.869 130.389C10.0632 130.191 8.68854 130.833 7.78314 130.824Z" fill="white"/>
<path d="M17.7172 131.402C17.4461 133.529 17.5573 135.69 18.0453 137.776C18.0881 138.021 18.1832 138.253 18.3235 138.456C18.4876 138.619 18.6845 138.742 18.8999 138.816C19.1153 138.891 19.344 138.915 19.5695 138.887C20.5426 138.868 21.5036 138.659 22.402 138.271C22.5611 138.218 22.7042 138.123 22.8173 137.995C22.9351 137.785 22.9778 137.538 22.9377 137.298L22.7384 133.9C22.6885 133.095 22.8588 131.79 22.3646 131.101C21.9493 130.519 21.3512 130.554 20.7033 130.644C20.425 130.7 17.7545 131.26 17.7172 131.402Z" fill="white"/>
<path d="M7.78314 130.824C7.25984 130.824 6.61609 130.824 6.3586 131.298C6.25314 131.554 6.22141 131.837 6.26723 132.112L6.62855 137.008C6.67839 137.689 6.76561 138.446 7.26815 138.881C7.58367 139.123 7.96426 139.255 8.35628 139.26C9.24663 139.269 10.1271 139.067 10.9313 138.67C11.2816 138.554 11.5889 138.328 11.8117 138.024C11.9726 137.681 12.0319 137.296 11.982 136.918C11.9405 135.626 11.874 134.312 11.7951 133.012C11.7453 132.185 11.7951 130.622 10.869 130.389C10.0632 130.191 8.68854 130.833 7.78314 130.824Z" fill="url(#paint8_linear)"/>
<path d="M17.7172 131.402C17.4461 133.529 17.5573 135.69 18.0453 137.776C18.0881 138.021 18.1832 138.253 18.3235 138.456C18.4876 138.619 18.6845 138.742 18.8999 138.816C19.1153 138.891 19.344 138.915 19.5695 138.887C20.5426 138.868 21.5036 138.659 22.402 138.271C22.5611 138.218 22.7042 138.123 22.8173 137.995C22.9351 137.785 22.9778 137.538 22.9377 137.298L22.7384 133.9C22.6885 133.095 22.8588 131.79 22.3646 131.101C21.9493 130.519 21.3512 130.554 20.7033 130.644C20.425 130.7 17.7545 131.26 17.7172 131.402Z" fill="url(#paint9_linear)"/>
<path d="M6.4569 143.572C6.4897 143.724 6.56649 143.863 6.67702 143.968C6.77741 144.034 6.89108 144.076 7.00927 144.089C9.86161 144.622 12.7968 144.413 15.5524 143.482C16.5782 143.133 17.737 142.461 17.7785 141.329C17.7496 140.734 17.5237 140.168 17.1389 139.727C16.0646 138.327 14.5585 137.354 12.8736 136.971C12.5657 136.874 12.2426 136.842 11.9226 136.875C11.6026 136.908 11.2921 137.006 11.0088 137.164C10.7347 137.354 10.5312 137.638 10.2654 137.84C9.23539 138.637 7.45782 137.918 6.57734 138.87C5.69686 139.821 6.09142 142.414 6.4569 143.572Z" fill="white"/>
<path d="M17.3332 142.664C17.351 143.122 17.5113 143.561 17.79 143.917C18.1871 144.236 18.6848 144.389 19.1855 144.348C22.0869 144.45 24.9795 143.961 27.6995 142.909C28.3949 142.684 29.0361 142.308 29.5809 141.807C29.851 141.553 30.052 141.23 30.1635 140.87C30.275 140.51 30.2933 140.126 30.2164 139.757C29.9755 138.874 29.0867 138.379 28.2727 138.009C27.3451 137.581 26.4037 137.186 25.4485 136.824C24.9311 136.588 24.3734 136.46 23.808 136.45C22.7365 136.501 21.9224 137.311 20.9506 137.651C19.9788 137.991 19.2893 137.72 18.3341 137.698C16.2616 137.66 17.1629 141.247 17.3332 142.664Z" fill="white"/>
<path d="M21.2935 33.1309C22.5395 32.8424 23.5736 32.218 24.0055 33.4711C24.7157 35.5253 26.1776 40.1417 27.4942 42.3164C28.7402 44.3619 30.119 46.2998 31.0203 47.5056C31.1202 47.6396 31.2518 47.7446 31.4023 47.8106C31.5528 47.8766 31.7171 47.9012 31.8795 47.8822C32.0418 47.8631 32.1967 47.801 32.3292 47.7019C32.4617 47.6027 32.5673 47.4699 32.6359 47.3161L34.3262 40.7145L39.8209 49.6889C39.8209 49.6889 35.6137 59.1629 33.0387 59.5074C28.7153 60.1146 20.8782 44.8658 20.8782 44.8658C20.8782 44.8658 14.2995 34.72 21.2935 33.1309Z" fill="white"/>
<path d="M34.3222 40.6968L34.779 31.5415L33.5331 28.5744C33.5331 28.5744 33.8819 27.4677 34.779 27.9888C35.6761 28.5098 36.0624 30.874 37.5243 28.9964C38.3471 27.9856 38.9999 26.8385 39.4555 25.603C39.4555 25.603 39.7463 25.6633 39.8044 26.8131C39.8413 27.4398 39.8413 28.0683 39.8044 28.695L39.8293 30.0257C39.8293 30.0257 39.5137 32.3296 38.9987 33.1478C38.4837 33.966 37.653 33.966 37.5368 36.0287C37.4205 38.0915 37.7403 46.2779 37.7403 46.2779L34.3222 40.6968Z" fill="url(#paint10_linear)"/>
<path d="M3.09089 90.7117L7.1361 72.8274L0.457764 90.8926L2.49698 92.5204L3.09089 90.7117Z" fill="url(#paint11_linear)"/>
<path d="M5.86536 96.9553L11.0153 73.4382L9.97702 97.7821L5.86536 96.9553Z" fill="url(#paint12_linear)"/>
<path opacity="0.41" d="M29.8481 94.6646L23.4148 71.4576L28.3073 96.9642C28.3073 96.9642 30.3174 96.357 29.8481 94.6646Z" fill="url(#paint13_linear)"/>
<path opacity="0.41" d="M20.6248 73.4382C20.6248 73.4382 25.4425 94.1346 25.4757 96.516C25.4757 96.516 24.0262 98.2386 22.0327 98.4108L20.6248 73.4382Z" fill="url(#paint14_linear)"/>
<path d="M12.3789 28.3081C12.3789 28.3081 16.2372 27.2358 18.887 28.3081L20.2118 30.4053C20.2118 30.4053 14.3143 29.2684 11.6687 29.9747C9.02314 30.6809 12.3789 28.3081 12.3789 28.3081Z" fill="white"/>
<path d="M12.3789 28.841C12.3789 28.841 16.2372 27.7687 18.887 28.841L20.2118 30.9381C20.2118 30.9381 14.3143 29.8013 11.6687 30.5075C9.02314 31.2138 12.3789 28.841 12.3789 28.841Z" fill="url(#paint15_linear)"/>
</g>
<defs>
<linearGradient id="paint0_linear" x1="42.7426" y1="20.2028" x2="36.1658" y2="23.6796" gradientUnits="userSpaceOnUse">
<stop stop-opacity="0"/>
<stop offset="0.97"/>
</linearGradient>
<linearGradient id="paint1_linear" x1="756.647" y1="11419.3" x2="2177.42" y2="11439.8" gradientUnits="userSpaceOnUse">
<stop stop-opacity="0"/>
<stop offset="0.97"/>
</linearGradient>
<linearGradient id="paint2_linear" x1="459.012" y1="6946.6" x2="459.012" y2="10876" gradientUnits="userSpaceOnUse">
<stop stop-opacity="0"/>
<stop offset="0.97"/>
</linearGradient>
<linearGradient id="paint3_linear" x1="1263.5" y1="2300.89" x2="849.766" y2="4442.34" gradientUnits="userSpaceOnUse">
<stop stop-opacity="0"/>
<stop offset="0.97"/>
</linearGradient>
<linearGradient id="paint4_linear" x1="978.019" y1="18503.3" x2="1173.4" y2="18503.3" gradientUnits="userSpaceOnUse">
<stop stop-color="white"/>
<stop offset="0.42" stop-color="#EFD4D1"/>
<stop offset="1" stop-color="#F2EAC9"/>
</linearGradient>
<linearGradient id="paint5_linear" x1="1560.32" y1="4826.03" x2="2078.92" y2="4966.58" gradientUnits="userSpaceOnUse">
<stop stop-color="white"/>
<stop offset="0.42" stop-color="#EFD4D1"/>
<stop offset="1" stop-color="#F2EAC9"/>
</linearGradient>
<linearGradient id="paint6_linear" x1="639.212" y1="7839.22" x2="1362.01" y2="7859.65" gradientUnits="userSpaceOnUse">
<stop stop-opacity="0"/>
<stop offset="0.97"/>
</linearGradient>
<linearGradient id="paint7_linear" x1="3413.77" y1="9656.55" x2="3413.77" y2="14344.4" gradientUnits="userSpaceOnUse">
<stop stop-opacity="0"/>
<stop offset="0.97"/>
</linearGradient>
<linearGradient id="paint8_linear" x1="545.186" y1="4270.08" x2="529.641" y2="4055.84" gradientUnits="userSpaceOnUse">
<stop stop-color="white" stop-opacity="0"/>
<stop offset="0.84" stop-color="white" stop-opacity="0.84"/>
<stop offset="0.97" stop-color="white"/>
</linearGradient>
<linearGradient id="paint9_linear" x1="20.3503" y1="136.286" x2="19.8058" y2="129.498" gradientUnits="userSpaceOnUse">
<stop stop-color="white" stop-opacity="0"/>
<stop offset="0.69" stop-color="white" stop-opacity="0.58"/>
<stop offset="0.84" stop-color="white" stop-opacity="0.84"/>
<stop offset="0.97" stop-color="white"/>
</linearGradient>
<linearGradient id="paint10_linear" x1="991.417" y1="4708.87" x2="1086.66" y2="4708.87" gradientUnits="userSpaceOnUse">
<stop stop-color="white"/>
<stop offset="0.42" stop-color="#EFD4D1"/>
<stop offset="1" stop-color="#F2EAC9"/>
</linearGradient>
<linearGradient id="paint11_linear" x1="442.897" y1="6691.25" x2="-592.557" y2="6668.64" gradientUnits="userSpaceOnUse">
<stop stop-opacity="0"/>
<stop offset="0.97"/>
</linearGradient>
<linearGradient id="paint12_linear" x1="409.055" y1="8330.39" x2="-171.907" y2="8351.19" gradientUnits="userSpaceOnUse">
<stop stop-opacity="0"/>
<stop offset="0.97"/>
</linearGradient>
<linearGradient id="paint13_linear" x1="853.496" y1="8708.25" x2="955.353" y2="8708.25" gradientUnits="userSpaceOnUse">
<stop stop-opacity="0"/>
<stop offset="0.97"/>
</linearGradient>
<linearGradient id="paint14_linear" x1="635.577" y1="7700.82" x2="635.577" y2="10305" gradientUnits="userSpaceOnUse">
<stop stop-opacity="0"/>
<stop offset="0.97"/>
</linearGradient>
<linearGradient id="paint15_linear" x1="1047.08" y1="554.674" x2="1047.08" y2="670.262" gradientUnits="userSpaceOnUse">
<stop stop-opacity="0"/>
<stop offset="0.97"/>
</linearGradient>
</defs>
</svg>
