<svg width="136" height="136" viewBox="0 0 136 136" fill="none" xmlns="http://www.w3.org/2000/svg">
<path d="M107.259 0H28.7413C12.8679 0 0 12.8679 0 28.7413V107.259C0 123.132 12.8679 136 28.7413 136H107.259C123.132 136 136 123.132 136 107.259V28.7413C136 12.8679 123.132 0 107.259 0Z" fill="#FDC81D"/>
<path d="M29.7284 22.7421C29.3527 22.7421 28.9924 22.8913 28.7267 23.1569C28.4611 23.4226 28.3118 23.783 28.3118 24.1587V100.659C28.3118 101.035 28.4611 101.395 28.7267 101.661C28.9924 101.926 29.3527 102.076 29.7284 102.076H72.2284C72.6041 102.076 72.9645 101.926 73.2301 101.661C73.4958 101.395 73.6451 101.035 73.6451 100.659V100.172C76.5996 101.473 78.9853 102.042 78.9853 102.042C79.2 102.093 79.4236 102.093 79.6383 102.042C79.6383 102.042 83.7042 101.088 87.8062 98.7608C91.9083 96.4338 96.3118 92.5338 96.3118 86.6635V68.2468C96.3113 67.9389 96.2107 67.6394 96.0249 67.3939C95.8392 67.1483 95.5786 66.97 95.2825 66.8858L79.6991 62.4639C79.5624 62.425 79.4207 62.407 79.2786 62.4103C79.1588 62.4123 79.0398 62.4292 78.9244 62.4611L73.6451 63.9601V40.5357V24.1553C73.6451 23.7796 73.4958 23.4193 73.2301 23.1537C72.9645 22.888 72.6041 22.7387 72.2284 22.7386H29.7284V22.7421ZM31.1451 25.5754H70.8118V40.5393V64.7663L63.3411 66.8858C63.2961 66.8987 63.2518 66.9138 63.2083 66.9311C63.1194 66.965 63.0341 67.0078 62.9537 67.0587C62.7956 67.1636 62.6601 67.2993 62.5553 67.4575C62.5294 67.4951 62.5054 67.5339 62.4833 67.5737C62.3709 67.7809 62.3119 68.0128 62.3118 68.2485V86.6652C62.3089 87.4392 62.3928 88.1724 62.5331 88.8787C62.5538 88.9836 62.5926 89.0745 62.6161 89.1779C62.7489 89.7579 62.9091 90.3252 63.1253 90.8598C63.2134 91.078 63.3349 91.2744 63.4352 91.4852C63.6249 91.8827 63.8088 92.2816 64.0383 92.6528C64.1964 92.9106 64.3788 93.1454 64.553 93.3888C64.7578 93.6744 64.9591 93.9611 65.1839 94.2303C65.2426 94.3011 65.2899 94.3833 65.3499 94.4513C65.4835 94.6043 65.6364 94.7318 65.776 94.8774C67.27 96.4717 69.0557 97.7708 70.8062 98.7622C70.8078 98.763 70.8102 98.7613 70.8119 98.7622L70.8118 99.2436H31.1451V25.5768L31.1451 25.5754ZM45.3118 28.4087V31.2421H56.6451V28.4087H45.3118ZM35.3066 34.0754C35.1321 34.0752 34.9593 34.1094 34.798 34.1761C34.6368 34.2427 34.4903 34.3406 34.3669 34.464C34.2435 34.5874 34.1457 34.7339 34.079 34.8951C34.0124 35.0564 33.9782 35.2292 33.9784 35.4037V54.2408C33.9793 54.5484 34.0871 54.8462 34.2833 55.0831C34.4795 55.3201 34.752 55.4813 35.054 55.5395C35.3561 55.5977 35.669 55.5491 35.9392 55.402C36.2093 55.2549 36.42 55.0186 36.5351 54.7333C38.8923 48.8941 44.4211 44.8166 50.9286 44.8166C57.4529 44.8166 63.0484 48.9198 65.4218 54.7774C65.537 55.0631 65.7481 55.2998 66.0189 55.4468C66.2896 55.5938 66.6031 55.6421 66.9055 55.5833C67.2079 55.5244 67.4804 55.362 67.6761 55.1241C67.8719 54.8862 67.9788 54.5876 67.9784 54.2795V40.7935V35.4037C67.9787 35.2292 67.9445 35.0564 67.8778 34.8951C67.8112 34.7339 67.7133 34.5874 67.59 34.464C67.4666 34.3406 67.3201 34.2427 67.1589 34.1761C66.9976 34.1094 66.8248 34.0752 66.6503 34.0754H35.3066ZM36.6292 36.7317H65.3277V40.7939V49.4099C61.9672 45.0211 56.7851 42.1662 50.9286 42.1662C45.1019 42.1662 39.9636 44.995 36.6292 49.349V36.7318V36.7317ZM43.9726 49.6587V49.6871H43.9062V52.5204H46.817C49.4612 52.5204 50.7959 53.7719 51.2773 55.3263H43.9726V58.1596H51.2773C50.7975 59.7148 49.4644 60.9705 46.817 60.9705H45.9094H45.8984H45.8873H43.9062V63.8038H44.7418L53.3857 72.3263L55.3779 70.312L48.5934 63.616C51.6667 62.9714 53.6399 60.6841 54.1826 58.1596H58.0508V55.3263H54.1826C53.9628 54.3068 53.4862 53.3429 52.8213 52.4926H58.0508V49.6593H43.9726L43.9726 49.6587ZM80.7284 52.4921V58.1589H83.5618V52.4921H80.7284ZM90.8609 53.9087L88.6917 59.1443L91.3036 60.2341L93.4784 54.9993L90.8609 53.9087ZM99.9752 59.5756L95.9687 63.5876L97.9719 65.5909L101.978 61.5844L99.9752 59.5756ZM79.3118 65.3031L93.4784 69.321V86.6638C93.4784 91.1067 90.0969 94.2047 86.4062 96.2982C82.878 98.2991 79.619 99.0725 79.3118 99.1482C79.0284 99.0773 76.2054 98.3713 73.0032 96.7022C72.9986 96.6999 72.9967 96.7022 72.9921 96.7022C72.9579 96.6818 72.9228 96.6629 72.887 96.6455C71.959 96.1564 71.0315 95.5762 70.1533 94.9466C70.0838 94.8956 70.0061 94.8589 69.9374 94.8079C69.0418 94.148 68.2122 93.4197 67.5081 92.6165C67.5013 92.6165 67.4928 92.5881 67.486 92.5881C67.4843 92.5862 67.4823 92.5881 67.4803 92.5881C67.1786 92.2416 66.9181 91.873 66.6668 91.5035C66.609 91.4157 66.5392 91.3364 66.4842 91.2486C66.323 90.9936 66.1984 90.7233 66.0637 90.4573C65.9545 90.2391 65.8335 90.0262 65.7427 89.7984C65.655 89.5802 65.6014 89.3453 65.5324 89.1181C65.4522 88.8546 65.354 88.5966 65.3 88.3212C65.205 87.8285 65.1597 87.3161 65.1561 86.7772C65.1559 86.7432 65.1448 86.7147 65.1451 86.6835V69.3463L72.6158 67.2265C72.6418 67.2178 72.6677 67.2083 72.6932 67.1981L79.3118 65.3225V65.3031ZM35.29 66.421C34.9415 66.4249 34.6085 66.5657 34.3631 66.8132C34.1177 67.0606 33.9795 67.3947 33.9784 67.7432V86.586C33.9795 86.9374 34.1199 87.2743 34.3689 87.5222C34.6179 87.7702 34.9551 87.909 35.3066 87.9086H58.9195C59.1023 87.9079 59.2829 87.8696 59.4502 87.7958C59.6174 87.722 59.7675 87.6143 59.8912 87.4797C60.0148 87.3451 60.1093 87.1863 60.1688 87.0135C60.2282 86.8406 60.2513 86.6575 60.2366 86.4753C60.1962 85.9942 60.1417 85.6677 60.1425 85.4076V76.4812C60.1428 76.2512 60.0833 76.0251 59.9698 75.8251C59.8563 75.625 59.6927 75.4579 59.4952 75.3401C59.2976 75.2224 59.0728 75.158 58.8429 75.1534C58.6129 75.1487 58.3857 75.2042 58.1835 75.3139C55.9976 76.4979 53.5487 77.184 50.9286 77.184C44.422 77.184 38.8925 73.0983 36.5351 67.2562C36.4352 67.0087 36.2629 66.7969 36.0407 66.6489C35.8186 66.5008 35.5569 66.4235 35.29 66.4265V66.421ZM106.522 68.0756L101.32 70.3223L102.443 72.9232L107.645 70.682L106.522 68.0756ZM36.6292 72.6355C39.9633 76.9923 45.101 79.8295 50.9286 79.8295C53.3045 79.8295 55.4116 78.9919 57.4862 78.1417V85.2585H36.6292V72.6355ZM83.3183 77.738L78.3101 82.7458L75.3053 79.7409L73.302 81.7442L78.3101 86.7523L85.3215 79.7409L83.3183 77.738ZM103.395 80.8256V83.6589H109.062V80.8256H103.395ZM50.9784 90.7422C50.227 90.7422 49.5063 91.041 48.975 91.5723C48.4436 92.1037 48.1451 92.8241 48.1451 93.5756C48.1451 94.327 48.4436 95.0478 48.975 95.5792C49.5063 96.1105 50.227 96.4089 50.9784 96.4089C51.7299 96.4089 52.4506 96.1105 52.9819 95.5792C53.5133 95.0478 53.8118 94.327 53.8118 93.5756C53.8118 92.8241 53.5133 92.1037 52.9819 91.5723C52.4506 91.041 51.7299 90.7422 50.9784 90.7422ZM102.443 91.5668L101.32 94.1677L106.522 96.4089L107.645 93.808L102.443 91.5668ZM97.9719 98.8991L95.9687 100.902L99.9752 104.909L101.978 102.906L97.9719 98.8991ZM90.7336 104.25L88.2545 105.623L90.9993 110.576L93.4784 109.209L90.7336 104.25ZM80.7284 106.326V111.992H83.5618V106.326H80.7284Z" fill="white"/>
</svg>
