<svg width="1440" height="1978" viewBox="0 0 1440 1978" fill="none" xmlns="http://www.w3.org/2000/svg">
<path opacity="0.05" d="M1583.37 892.62C1404.29 799.203 1290.76 717.664 1220.47 638.333C1142 546.264 1101.04 527.587 1048.67 561.242C989.477 599.287 967.367 659.997 996.704 705.645C1027.4 753.415 1012.13 794.73 948.382 835.702C857.309 894.232 831.827 874.608 649.882 616.533L474.078 368.012L405.773 411.91L337.468 455.808L467.078 687.516C539.388 815.048 599.869 929.18 603.733 940.198C616.235 969.663 549.739 1036.4 483.949 1059.18C439.103 1074.5 424.085 1066.15 380.422 998.213C316.973 899.487 265.772 879.892 200.879 929.097C139.857 974.315 143.022 1014.28 212.832 1132.92C269.229 1225.68 265.333 1274.68 199.305 1317.12C128.723 1362.48 66.3606 1360.56 34.2952 1310.66C11.0989 1274.57 -9.15439 1268.08 -46.488 1280.08C-143.693 1314.05 -157.822 1347.13 -117.364 1450.13C-75.9935 1549.54 -53.9719 1653.89 -33.1411 1856.51C-16.3795 2007.74 29.1007 2083.51 85.3311 2060.88C158.864 2030.12 188.709 1976.44 166.211 1911.4C100.772 1704.45 395.492 1332.03 772.961 1143.44C1078.03 992.383 1314.08 959.185 1466.3 1045.86C1580.75 1108.81 1568.35 1299.78 1441.49 1472.81C1360.4 1581.93 1198.26 1740.13 1107.19 1798.66C1018.39 1855.73 987.19 1892.28 1004.25 1918.82C1028.81 1957.04 1100.98 1924.16 1247.61 1811.91C1606.69 1534.64 1794.42 1200.99 1694.38 1010.28C1670.96 963.83 1623.41 914.884 1583.37 892.62Z" fill="#0301E2"/>
</svg>
