<svg width="696" height="609" viewBox="0 0 696 609" fill="none" xmlns="http://www.w3.org/2000/svg">
<path opacity="0.05" d="M392.584 102.169C334.385 148.041 289.541 178.052 251.504 197.832C207.791 220.062 195.437 230.442 200.131 241.32C205.438 253.616 223.979 256.275 244.319 247.497C265.606 238.311 278.192 240.173 283.907 253.416C292.07 272.333 281.534 279.124 164.298 332.52L51.3187 384.079L57.4414 398.268L63.5641 412.456L164.124 372.427C219.608 350.168 268.673 331.239 273.134 329.875C285.368 325.717 299.876 338.531 298.829 353.009C298.041 362.886 292.977 366.754 262.703 379.818C218.712 398.802 204.605 411.622 213.093 424.79C220.699 437.216 235.373 434.811 287.341 413.507C328.225 396.425 345.134 395.3 351.053 409.015C357.379 423.676 348.012 438.378 325.78 447.972C309.697 454.912 304.568 459.93 303.641 468.185C302.205 489.562 312.019 491.498 354.332 477.727C395.495 463.891 435.721 454.387 510.776 441.073C566.965 430.851 600.281 417.035 600.048 404.793C599.333 388.832 584.372 384.068 558.077 392.049C475.268 416.002 383.68 362.396 369.075 281.741C357.754 216.499 378.796 162.537 430.856 123.242C469.207 93.7884 535.488 88.7488 579.446 111.295C607.013 125.767 640.778 157.2 648.941 176.118C656.901 194.563 665.573 200.357 677.399 195.254C694.428 187.906 692.767 172.353 673.212 142.642C624.465 69.9882 531.784 39.8558 449.941 71.2465C430.139 78.6697 406.089 91.8531 392.584 102.169Z" fill="#0301E2"/>
</svg>
