<svg width="136" height="136" viewBox="0 0 136 136" fill="none" xmlns="http://www.w3.org/2000/svg">
<g clip-path="url(#clip0)">
<path d="M107.259 0H28.7413C12.8679 0 0 12.8679 0 28.7413V107.259C0 123.132 12.8679 136 28.7413 136H107.259C123.132 136 136 123.132 136 107.259V28.7413C136 12.8679 123.132 0 107.259 0Z" fill="#FDC81D"/>
<path d="M105.558 45.4276L68.4419 24.1173C68.1697 23.9609 67.8303 23.9609 67.5581 24.1173L30.4419 45.4276C30.1679 45.584 30 45.874 30 46.1887V88.8109C30 89.1255 30.1679 89.4156 30.4419 89.572L67.5581 110.882C67.6942 110.96 67.848 111 68 111C68.152 111 68.3058 110.961 68.4419 110.882L105.558 89.572C105.832 89.4156 106 89.1255 106 88.8109V46.1887C106 45.8758 105.832 45.5858 105.558 45.4276ZM68.8837 108.601V94.7765C68.8837 94.2914 68.4878 93.8977 68 93.8977C67.5122 93.8977 67.1163 94.2914 67.1163 94.7765V108.601L31.7674 88.3047V47.9077L49.889 58.3132C50.0286 58.3923 50.1806 58.431 50.3309 58.431C50.6366 58.431 50.9336 58.2745 51.098 57.9915C51.3419 57.5715 51.1969 57.0336 50.7745 56.791L32.4815 46.2871L68 25.8926L103.177 46.0902L85.222 56.4008C84.7995 56.6434 84.6546 57.1813 84.8985 57.6013C85.0629 57.8843 85.3598 58.0408 85.6656 58.0408C85.8158 58.0408 85.9678 58.0038 86.1074 57.923L104.233 47.5157V88.3047L68.8837 108.601Z" fill="#F1F2F2"/>
<path d="M77.7657 72.895C77.7657 69.0694 74.7404 65.9624 70.9641 65.7908C70.9106 65.7801 70.8607 65.7586 70.8036 65.7586H70.6449H68.8932V55.0219H76.8738C77.3661 55.0219 77.7657 54.6215 77.7657 54.1281C77.7657 53.6347 77.3661 53.2342 76.8738 53.2342H68.8932V46.9899C68.8932 46.4965 68.4936 46.0961 68.0013 46.0961C67.509 46.0961 67.1094 46.4965 67.1094 46.9899V53.2342H65.397C61.4263 53.2342 58.1977 56.4449 58.1977 60.3903C58.1977 64.3356 61.4281 67.5463 65.397 67.5463H67.0844H67.1094V78.2436H59.0878C58.5955 78.2436 58.1959 78.6441 58.1959 79.1375C58.1959 79.6309 58.5955 80.0313 59.0878 80.0313H67.1094V88.1044C67.1094 88.5978 67.509 88.9982 68.0013 88.9982C68.4936 88.9982 68.8932 88.5978 68.8932 88.1044V80.0313H70.6431C74.5709 80.0313 77.7657 76.8296 77.7657 72.895ZM67.0844 65.7568H65.397C62.411 65.7568 59.9815 63.3488 59.9815 60.3885C59.9815 57.4281 62.411 55.0201 65.397 55.0201H67.1094V65.7568H67.0844ZM68.8932 67.5445H70.6431C73.5863 67.5445 75.9801 69.9435 75.9801 72.8932C75.9801 75.8428 73.5863 78.2419 70.6431 78.2419H68.8932V67.5445ZM68.0013 38.9383C70.4593 38.9383 72.4607 36.9326 72.4607 34.4692C72.4607 32.0058 70.4593 30 68.0013 30C65.5433 30 63.5419 32.0058 63.5419 34.4692C63.5419 36.9326 65.5433 38.9383 68.0013 38.9383ZM68.0013 31.7877C69.4765 31.7877 70.677 32.9908 70.677 34.4692C70.677 35.9476 69.4765 37.1506 68.0013 37.1506C66.5261 37.1506 65.3256 35.9476 65.3256 34.4692C65.3256 32.9908 66.5261 31.7877 68.0013 31.7877ZM98.7714 80.657C96.6415 79.4253 93.9106 80.1582 92.6798 82.2945C92.084 83.3278 91.927 84.5326 92.2338 85.6857C92.5407 86.8387 93.2791 87.8023 94.3119 88.3993C94.9987 88.7962 95.7621 89 96.5345 89C96.9216 89 97.3123 88.9499 97.6958 88.8463C98.8463 88.537 99.8077 87.7987 100.404 86.7636C101.633 84.6292 100.901 81.8905 98.7714 80.657ZM98.8588 85.868C98.1221 87.1498 96.4828 87.5913 95.2038 86.8494C93.9267 86.1094 93.4878 84.4665 94.2245 83.1865C94.7186 82.3267 95.6212 81.8458 96.547 81.8458C97.0001 81.8458 97.4603 81.9602 97.8795 82.2051C99.1567 82.9452 99.5955 84.5881 98.8588 85.868ZM41.6907 80.657C39.5608 79.4253 36.8281 80.1582 35.5991 82.2945C35.0033 83.3278 34.8463 84.5326 35.1531 85.6857C35.4599 86.8387 36.1984 87.8023 37.2312 88.3993C37.918 88.7962 38.6814 89 39.4538 89C39.8409 89 40.2315 88.9499 40.6151 88.8463C41.7656 88.537 42.727 87.7987 43.3228 86.7636C44.5518 84.6292 43.8205 81.8905 41.6907 80.657ZM41.7781 85.868C41.0414 87.1498 39.4021 87.5913 38.1231 86.8494C36.8459 86.1094 36.4071 84.4665 37.1438 83.1865C37.6379 82.3267 38.5405 81.8458 39.4663 81.8458C39.9194 81.8458 40.3796 81.9602 40.7988 82.2051C42.076 82.9452 42.5148 84.5881 41.7781 85.868Z" fill="#F1F2F2"/>
<path d="M40 57C40.5523 57 41 56.7761 41 56.5C41 56.2239 40.5523 56 40 56C39.4477 56 39 56.2239 39 56.5C39 56.7761 39.4477 57 40 57Z" fill="#F1F2F2"/>
<path d="M40 61C40.5523 61 41 60.7761 41 60.5C41 60.2239 40.5523 60 40 60C39.4477 60 39 60.2239 39 60.5C39 60.7761 39.4477 61 40 61Z" fill="#F1F2F2"/>
<path d="M40 64C40.5523 64 41 63.5523 41 63C41 62.4477 40.5523 62 40 62C39.4477 62 39 62.4477 39 63C39 63.5523 39.4477 64 40 64Z" fill="#F1F2F2"/>
<path d="M40 68C40.5523 68 41 67.5523 41 67C41 66.4477 40.5523 66 40 66C39.4477 66 39 66.4477 39 67C39 67.5523 39.4477 68 40 68Z" fill="#F1F2F2"/>
<path d="M40 72C40.5523 72 41 71.3284 41 70.5C41 69.6716 40.5523 69 40 69C39.4477 69 39 69.6716 39 70.5C39 71.3284 39.4477 72 40 72Z" fill="#F1F2F2"/>
<path d="M40 75C40.5523 75 41 74.5523 41 74C41 73.4477 40.5523 73 40 73C39.4477 73 39 73.4477 39 74C39 74.5523 39.4477 75 40 75Z" fill="#F1F2F2"/>
<path d="M40 78C40.5523 78 41 77.7761 41 77.5C41 77.2239 40.5523 77 40 77C39.4477 77 39 77.2239 39 77.5C39 77.7761 39.4477 78 40 78Z" fill="#F1F2F2"/>
<path d="M96 57C96.5523 57 97 56.7761 97 56.5C97 56.2239 96.5523 56 96 56C95.4477 56 95 56.2239 95 56.5C95 56.7761 95.4477 57 96 57Z" fill="#F1F2F2"/>
<path d="M96 61C96.5523 61 97 60.7761 97 60.5C97 60.2239 96.5523 60 96 60C95.4477 60 95 60.2239 95 60.5C95 60.7761 95.4477 61 96 61Z" fill="#F1F2F2"/>
<path d="M96 64C96.5523 64 97 63.5523 97 63C97 62.4477 96.5523 62 96 62C95.4477 62 95 62.4477 95 63C95 63.5523 95.4477 64 96 64Z" fill="#F1F2F2"/>
<path d="M96 68C96.5523 68 97 67.5523 97 67C97 66.4477 96.5523 66 96 66C95.4477 66 95 66.4477 95 67C95 67.5523 95.4477 68 96 68Z" fill="#F1F2F2"/>
<path d="M96 72C96.5523 72 97 71.3284 97 70.5C97 69.6716 96.5523 69 96 69C95.4477 69 95 69.6716 95 70.5C95 71.3284 95.4477 72 96 72Z" fill="#F1F2F2"/>
<path d="M96 75C96.5523 75 97 74.5523 97 74C97 73.4477 96.5523 73 96 73C95.4477 73 95 73.4477 95 74C95 74.5523 95.4477 75 96 75Z" fill="#F1F2F2"/>
<path d="M96 78C96.5523 78 97 77.7761 97 77.5C97 77.2239 96.5523 77 96 77C95.4477 77 95 77.2239 95 77.5C95 77.7761 95.4477 78 96 78Z" fill="#F1F2F2"/>
<path d="M61.3562 38.7074C61.7794 38.4647 61.9258 37.9248 61.6831 37.5016C61.4403 37.0784 60.9005 36.9321 60.4773 37.1748C60.054 37.4175 59.9077 37.9573 60.1504 38.3806C60.3931 38.8038 60.933 38.9501 61.3562 38.7074Z" fill="#F1F2F2"/>
<path d="M58.2898 40.4623C58.713 40.2196 58.8594 39.6797 58.6166 39.2565C58.3739 38.8333 57.8341 38.6869 57.4108 38.9297C56.9876 39.1724 56.8413 39.7122 57.084 40.1355C57.3267 40.5587 57.8666 40.705 58.2898 40.4623Z" fill="#F1F2F2"/>
<path d="M55.2273 42.2206C55.6505 41.9779 55.7969 41.438 55.5541 41.0148C55.3114 40.5916 54.7716 40.4452 54.3483 40.688C53.9251 40.9307 53.7788 41.4705 54.0215 41.8938C54.2642 42.317 54.8041 42.4633 55.2273 42.2206Z" fill="#F1F2F2"/>
<path d="M52.157 43.9784C52.5802 43.7357 52.7265 43.1958 52.4838 42.7726C52.2411 42.3494 51.7013 42.2031 51.278 42.4458C50.8548 42.6885 50.7085 43.2283 50.9512 43.6516C51.1939 44.0748 51.7338 44.2211 52.157 43.9784Z" fill="#F1F2F2"/>
<path d="M49.0906 45.7377C49.5138 45.495 49.6601 44.9551 49.4174 44.5319C49.1747 44.1087 48.6349 43.9623 48.2116 44.2051C47.7884 44.4478 47.6421 44.9876 47.8848 45.4108C48.1275 45.8341 48.6674 45.9804 49.0906 45.7377Z" fill="#F1F2F2"/>
<path d="M46.0281 47.4935C46.4513 47.2508 46.5976 46.711 46.3549 46.2878C46.1122 45.8645 45.5724 45.7182 45.1491 45.9609C44.7259 46.2036 44.5796 46.7435 44.8223 47.1667C45.065 47.5899 45.6049 47.7363 46.0281 47.4935Z" fill="#F1F2F2"/>
<path d="M42.9656 49.2538C43.3888 49.0111 43.5351 48.4712 43.2924 48.048C43.0497 47.6248 42.5099 47.4784 42.0866 47.7212C41.6634 47.9639 41.5171 48.5037 41.7598 48.927C42.0025 49.3502 42.5424 49.4965 42.9656 49.2538Z" fill="#F1F2F2"/>
<path d="M91.1218 89.8407C91.5451 89.598 91.6914 89.0581 91.4487 88.6349C91.206 88.2117 90.6661 88.0654 90.2429 88.3081C89.8197 88.5508 89.6733 89.0907 89.916 89.5139C90.1588 89.9371 90.6986 90.0834 91.1218 89.8407Z" fill="#F1F2F2"/>
<path d="M88.0593 91.5985C88.4826 91.3558 88.6289 90.816 88.3862 90.3927C88.1435 89.9695 87.6036 89.8232 87.1804 90.0659C86.7572 90.3086 86.6108 90.8485 86.8535 91.2717C87.0963 91.6949 87.6361 91.8412 88.0593 91.5985Z" fill="#F1F2F2"/>
<path d="M84.9851 93.3568C85.4083 93.1141 85.5547 92.5743 85.312 92.151C85.0692 91.7278 84.5294 91.5815 84.1062 91.8242C83.6829 92.0669 83.5366 92.6068 83.7793 93.03C84.022 93.4532 84.5619 93.5995 84.9851 93.3568Z" fill="#F1F2F2"/>
<path d="M81.9226 95.1146C82.3458 94.8719 82.4922 94.3321 82.2495 93.9088C82.0067 93.4856 81.4669 93.3393 81.0437 93.582C80.6204 93.8247 80.4741 94.3646 80.7168 94.7878C80.9595 95.211 81.4994 95.3574 81.9226 95.1146Z" fill="#F1F2F2"/>
<path d="M78.8601 96.8734C79.2833 96.6307 79.4297 96.0909 79.187 95.6676C78.9442 95.2444 78.4044 95.0981 77.9812 95.3408C77.5579 95.5835 77.4116 96.1234 77.6543 96.5466C77.897 96.9698 78.4369 97.1161 78.8601 96.8734Z" fill="#F1F2F2"/>
<path d="M75.7976 98.6356C76.2208 98.3929 76.3672 97.8531 76.1245 97.4298C75.8817 97.0066 75.3419 96.8603 74.9187 97.103C74.4954 97.3457 74.3491 97.8856 74.5918 98.3088C74.8345 98.732 75.3744 98.8784 75.7976 98.6356Z" fill="#F1F2F2"/>
<path d="M72.7312 100.393C73.1544 100.151 73.3008 99.6109 73.0581 99.1877C72.8153 98.7644 72.2755 98.6181 71.8523 98.8608C71.429 99.1035 71.2827 99.6434 71.5254 100.067C71.7681 100.49 72.308 100.636 72.7312 100.393Z" fill="#F1F2F2"/>
<path d="M76.5815 38.3709C76.8242 37.9477 76.6779 37.4079 76.2546 37.1651C75.8314 36.9224 75.2916 37.0688 75.0489 37.492C74.8061 37.9152 74.9525 38.4551 75.3757 38.6978C75.7989 38.9405 76.3388 38.7942 76.5815 38.3709Z" fill="#F1F2F2"/>
<path d="M79.6557 40.1327C79.8984 39.7094 79.7521 39.1696 79.3289 38.9269C78.9056 38.6841 78.3658 38.8305 78.1231 39.2537C77.8804 39.6769 78.0267 40.2168 78.4499 40.4595C78.8731 40.7022 79.413 40.5559 79.6557 40.1327Z" fill="#F1F2F2"/>
<path d="M82.7182 41.89C82.9609 41.4668 82.8146 40.9269 82.3914 40.6842C81.9681 40.4415 81.4283 40.5878 81.1856 41.011C80.9429 41.4343 81.0892 41.9741 81.5124 42.2168C81.9356 42.4595 82.4755 42.3132 82.7182 41.89Z" fill="#F1F2F2"/>
<path d="M85.7807 43.6483C86.0234 43.2251 85.8771 42.6852 85.4539 42.4425C85.0306 42.1998 84.4908 42.3461 84.2481 42.7693C84.0054 43.1926 84.1517 43.7324 84.5749 43.9751C84.9981 44.2178 85.538 44.0715 85.7807 43.6483Z" fill="#F1F2F2"/>
<path d="M88.8471 45.4061C89.0898 44.9829 88.9435 44.443 88.5203 44.2003C88.097 43.9576 87.5572 44.1039 87.3145 44.5271C87.0718 44.9504 87.2181 45.4902 87.6413 45.7329C88.0645 45.9757 88.6044 45.8293 88.8471 45.4061Z" fill="#F1F2F2"/>
<path d="M91.9135 47.1644C92.1562 46.7412 92.0099 46.2013 91.5867 45.9586C91.1635 45.7159 90.6236 45.8622 90.3809 46.2854C90.1382 46.7087 90.2845 47.2485 90.7077 47.4912C91.1309 47.734 91.6708 47.5876 91.9135 47.1644Z" fill="#F1F2F2"/>
<path d="M94.976 48.9164C95.2187 48.4931 95.0724 47.9533 94.6492 47.7106C94.226 47.4678 93.6861 47.6142 93.4434 48.0374C93.2007 48.4606 93.347 49.0005 93.7702 49.2432C94.1934 49.4859 94.7333 49.3396 94.976 48.9164Z" fill="#F1F2F2"/>
<path d="M46.8237 89.513C47.0664 89.0898 46.9201 88.55 46.4968 88.3072C46.0736 88.0645 45.5338 88.2108 45.291 88.6341C45.0483 89.0573 45.1947 89.5972 45.6179 89.8399C46.0411 90.0826 46.581 89.9363 46.8237 89.513Z" fill="#F1F2F2"/>
<path d="M49.8862 91.2694C50.1289 90.8462 49.9826 90.3063 49.5593 90.0636C49.1361 89.8209 48.5963 89.9672 48.3535 90.3904C48.1108 90.8136 48.2572 91.3535 48.6804 91.5962C49.1036 91.8389 49.6435 91.6926 49.8862 91.2694Z" fill="#F1F2F2"/>
<path d="M52.9604 93.0301C53.2031 92.6069 53.0568 92.067 52.6336 91.8243C52.2103 91.5816 51.6705 91.7279 51.4278 92.1512C51.185 92.5744 51.3314 93.1142 51.7546 93.357C52.1778 93.5997 52.7177 93.4533 52.9604 93.0301Z" fill="#F1F2F2"/>
<path d="M56.0229 94.7865C56.2656 94.3632 56.1193 93.8234 55.6961 93.5807C55.2728 93.338 54.733 93.4843 54.4903 93.9075C54.2475 94.3307 54.3939 94.8706 54.8171 95.1133C55.2403 95.356 55.7802 95.2097 56.0229 94.7865Z" fill="#F1F2F2"/>
<path d="M59.0893 96.5448C59.332 96.1215 59.1857 95.5817 58.7625 95.339C58.3392 95.0963 57.7994 95.2426 57.5567 95.6658C57.3139 96.089 57.4603 96.6289 57.8835 96.8716C58.3067 97.1143 58.8466 96.968 59.0893 96.5448Z" fill="#F1F2F2"/>
<path d="M62.1518 98.2987C62.3945 97.8754 62.2482 97.3356 61.825 97.0929C61.4017 96.8502 60.8619 96.9965 60.6192 97.4197C60.3764 97.8429 60.5228 98.3828 60.946 98.6255C61.3692 98.8682 61.9091 98.7219 62.1518 98.2987Z" fill="#F1F2F2"/>
<path d="M65.2182 100.055C65.4609 99.6318 65.3146 99.0919 64.8914 98.8492C64.4681 98.6065 63.9283 98.7528 63.6856 99.1761C63.4429 99.5993 63.5892 100.139 64.0124 100.382C64.4356 100.625 64.9755 100.478 65.2182 100.055Z" fill="#F1F2F2"/>
</g>
<defs>
<clipPath id="clip0">
<rect width="136" height="136" fill="white"/>
</clipPath>
</defs>
</svg>
