<svg width="482" height="424" viewBox="0 0 482 424" fill="none" xmlns="http://www.w3.org/2000/svg">
<path opacity="0.05" d="M-144.622 381.306C-40.8585 354.008 36.417 337.509 99.1141 328.337C170.916 318.223 193.264 311.882 192.21 301.695C191.019 290.178 166.629 284.195 134.005 287.57C99.8633 291.102 83.335 286.992 82.052 274.59C80.2192 256.872 98.2447 253.217 287.69 231.381L470.308 210.252L468.933 196.964L467.559 183.676L307.957 197.5C219.81 205.275 142.24 211.508 135.366 211.772C116.307 212.848 102.61 199.044 111.327 186.95C117.377 178.714 126.343 176.443 174.9 171.42C245.459 164.121 271.464 156.059 266.296 143.163C261.978 131.075 240.414 130.172 157.624 137.84C92.3299 144.147 68.3063 141.708 66.9775 128.862C65.5571 115.131 85.9301 104.518 121.589 100.829C147.385 98.1608 157.019 94.9259 162.447 88.0968C175.167 70.2169 162.524 66.6003 96.9089 69.8063C32.8575 73.2982 -27.7212 73.2972 -138.532 69.5387C-221.617 66.9413 -274.771 71.9921 -280.592 82.4432C-287.609 96.1517 -269.242 103.205 -228.756 101.703C-101.85 97.9771 -1.68271 161.93 -21.8939 233.411C-38.9275 291.133 -95.1992 332.768 -187.145 355.71C-255.132 373.04 -349.618 364.011 -399.289 336.021C-430.273 318.185 -461.344 284.689 -463.177 266.972C-464.963 249.697 -474.088 243.03 -493.056 244.992C-520.369 247.818 -525.868 261.369 -513.648 290.548C-482.477 362.086 -369.014 406.308 -239.714 396.067C-208.516 393.735 -168.534 387.361 -144.622 381.306Z" fill="#0301E2"/>
</svg>
